<svg width="25" height="25" viewBox="0 0 25 25" fill="none" xmlns="http://www.w3.org/2000/svg">
<path d="M3.31775 1.20691C2.289 1.20241 1.60525 1.22441 1.60525 1.22441C1.44302 1.22953 1.28915 1.29757 1.1762 1.41412C1.06324 1.53067 1.00005 1.6866 1 1.84891V3.12491H0.6175C0.453729 3.12491 0.296665 3.18996 0.180862 3.30577C0.0650579 3.42157 0 3.57863 0 3.74241L0 21.2574C0 21.4212 0.0650579 21.5782 0.180862 21.694C0.296665 21.8098 0.453729 21.8749 0.6175 21.8749H11.475C12.1315 22.3167 12.9767 22.2154 13.525 21.8749H24.3825C24.5463 21.8749 24.7033 21.8098 24.8191 21.694C24.9349 21.5782 25 21.4212 25 21.2574V3.74241C25 3.57863 24.9349 3.42157 24.8191 3.30577C24.7033 3.18996 24.5463 3.12491 24.3825 3.12491H24V1.84891C23.9999 1.68656 23.9367 1.5306 23.8237 1.41404C23.7107 1.29748 23.5568 1.22947 23.3945 1.22441C23.3945 1.22441 22.711 1.20241 21.682 1.20691C20.6535 1.21141 19.28 1.24216 17.9 1.34766C16.52 1.45266 15.1355 1.62766 14.0358 1.94816C13.4858 2.10816 13.0043 2.29991 12.6103 2.58291C12.5728 2.60991 12.5362 2.63966 12.5 2.66941C12.4642 2.63943 12.4274 2.61059 12.3897 2.58291C11.9957 2.29991 11.5142 2.10841 10.9642 1.94816C9.8645 1.62791 8.48 1.45291 7.1 1.34766C5.72 1.24241 4.3465 1.21141 3.31775 1.20691ZM21.6793 1.83191C22.6968 1.82741 23.375 1.84891 23.375 1.84891V19.3489C23.375 19.3489 13.894 18.9804 12.6368 20.9204C12.5495 21.0509 12.4625 21.0592 12.3755 20.9399C11.1685 18.9782 1.625 19.3489 1.625 19.3489V1.84891C1.625 1.84891 2.30325 1.82791 3.32075 1.83241C6.37325 1.84591 12.4805 2.09241 12.5 3.84891C12.5195 2.09241 18.6268 1.84541 21.6793 1.83191ZM1.235 19.8374C1.35225 19.9311 1.49929 19.9794 1.64925 19.9737C1.64925 19.9737 4.32875 19.8707 6.994 20.0649C8.3265 20.1619 9.657 20.3382 10.5985 20.6149C10.6248 20.6229 10.6473 20.6317 10.673 20.6397H1.23525L1.235 19.8374ZM23.7645 19.8374V20.6397H14.3267C14.3525 20.6317 14.375 20.6229 14.4012 20.6152C15.3427 20.3382 16.6733 20.1619 18.0058 20.0649C20.6708 19.8707 23.3507 19.9737 23.3507 19.9737C23.5006 19.9794 23.6473 19.931 23.7645 19.8374Z" fill="#9C6C44"/>
<path d="M21.6768 2.45757C20.6705 2.46207 19.3302 2.49182 17.9947 2.59382C16.6592 2.69582 15.3265 2.87432 14.3848 3.14857C13.914 3.28557 13.5437 3.45157 13.3392 3.59832C13.135 3.74482 13.1255 3.80457 13.125 3.85582V6.78857C13.1363 6.78257 13.15 6.77607 13.1528 6.77107C13.1557 6.76502 13.1601 6.75972 13.1654 6.75557C13.1707 6.75141 13.1769 6.74851 13.1835 6.74707C13.2223 6.73857 13.2792 6.77457 13.3125 6.83807C13.3533 6.91557 13.3535 6.92882 13.3175 6.99307C13.2955 7.03207 13.2385 7.09057 13.191 7.12257C13.16 7.14357 13.1448 7.16082 13.125 7.17932V11.1421C13.17 11.0676 13.1785 10.9906 13.151 10.8803C13.1235 10.7708 13.126 10.7548 13.2017 10.6031C13.2755 10.4548 13.347 10.3543 13.483 10.2086C13.5136 10.1731 13.5319 10.1288 13.5352 10.0821C13.5352 10.0371 13.566 9.97582 13.621 9.91157C13.777 9.72957 13.7933 9.62507 13.661 9.64857C13.5785 9.66357 13.5793 9.66932 13.5758 9.35607C13.5743 9.22607 13.5848 9.15807 13.6093 9.13357C13.6313 9.11157 13.7173 9.09007 13.8325 9.07732L14.02 9.05632V8.95857C14.02 8.84057 13.9565 8.73957 13.8892 8.75157C13.828 8.76257 13.7962 8.69107 13.8442 8.65007C13.8723 8.63033 13.9063 8.6208 13.9405 8.62307C13.9925 8.62682 13.999 8.61982 13.9867 8.57282C13.9747 8.52682 13.9817 8.51832 14.0282 8.52207C14.0812 8.52607 14.1963 8.44457 14.17 8.42157C14.157 8.41032 13.9275 8.48807 13.8177 8.54057C13.7577 8.56957 13.7575 8.56807 13.7983 8.49957C13.8298 8.44682 13.8332 8.42207 13.8115 8.39857C13.7897 8.37507 13.7945 8.35682 13.8315 8.32107C13.869 8.28432 13.8715 8.27507 13.8418 8.27882C13.8148 8.28257 13.8217 8.26457 13.8652 8.21882C13.9202 8.16132 13.9228 8.15032 13.8888 8.12057C13.8545 8.09107 13.8462 8.09307 13.8145 8.13882C13.7968 8.16359 13.7837 8.19137 13.776 8.22082C13.7743 8.23757 13.7715 8.27532 13.769 8.30532C13.7665 8.34332 13.735 8.37457 13.6635 8.41082C13.5292 8.47857 13.5185 8.47957 13.503 8.41957C13.4955 8.39132 13.501 8.36632 13.5153 8.36382C13.5298 8.36132 13.5343 8.33207 13.5253 8.29707C13.504 8.21182 13.5323 8.13957 13.5828 8.15107C13.6048 8.15607 13.6147 8.15232 13.6045 8.14357C13.5745 8.11732 13.662 8.02107 13.712 8.02607C13.7428 8.02924 13.7628 8.01132 13.772 7.97232C13.7795 7.94032 13.7758 7.91582 13.7633 7.91807C13.7383 7.92257 13.7595 7.77057 13.795 7.69157C13.8078 7.66282 13.8467 7.63557 13.8837 7.62907C13.9365 7.61957 13.9472 7.62807 13.9365 7.67332C13.9265 7.71482 13.935 7.72682 13.9712 7.72032C14.0262 7.71032 14.0325 7.74207 13.9928 7.82732C13.9728 7.87032 13.9745 7.89482 13.9985 7.92107C14.0375 7.96332 14.0853 8.03882 14.121 8.11582C14.1355 8.14682 14.1647 8.17582 14.1865 8.18082C14.216 8.18732 14.2215 8.21282 14.2095 8.28382C14.1938 8.37507 14.195 8.37682 14.2535 8.33807C14.2867 8.31582 14.3315 8.25682 14.3525 8.20607C14.381 8.13782 14.4152 8.10357 14.4862 8.07232C14.5687 8.03632 14.5815 8.01982 14.5815 7.95482C14.5815 7.91307 14.5708 7.88082 14.5565 7.88332C14.5005 7.89332 14.531 7.73132 14.5983 7.66407C14.635 7.62707 14.674 7.59532 14.6845 7.59332C14.7222 7.58657 14.7295 7.75832 14.6938 7.80757C14.6238 7.90407 14.6675 7.95857 14.79 7.92682C14.828 7.91682 14.8662 7.91982 14.875 7.93307C14.8853 7.94882 14.915 7.94057 14.9595 7.90932C15.0673 7.83307 15.1685 7.79532 15.1685 7.83182C15.1685 7.90432 15.267 7.74632 15.2797 7.65282C15.3062 7.45932 15.3275 7.37132 15.35 7.36732C15.3625 7.36482 15.3957 7.33532 15.4237 7.30082C15.4621 7.25806 15.514 7.22981 15.5708 7.22082C15.6233 7.21107 15.6827 7.18882 15.7035 7.17157C15.7792 7.10782 15.6505 7.11632 15.5332 7.18257C15.4297 7.24132 15.4152 7.24432 15.3582 7.21532C15.3242 7.19782 15.295 7.17632 15.295 7.16707L15.2825 7.02107C15.2728 6.90507 15.28 6.88032 15.354 6.77857C15.5243 6.54382 15.5307 6.53157 15.4985 6.49657C15.4889 6.48711 15.4773 6.47992 15.4645 6.47555C15.4517 6.47118 15.4381 6.46974 15.4248 6.47132C15.377 6.47982 15.3113 6.61332 15.3365 6.65132C15.345 6.66457 15.299 6.73582 15.2345 6.80957C15.0875 6.97707 15.0503 7.09757 15.1195 7.17782C15.1875 7.25632 15.179 7.39807 15.1055 7.41132C15.0865 7.41457 15.0605 7.48457 15.043 7.58257C15.0185 7.71757 15.0033 7.75007 14.963 7.75757C14.9355 7.76232 14.9135 7.77832 14.9135 7.79307C14.9135 7.80782 14.8903 7.82357 14.8623 7.82857C14.8343 7.83357 14.8115 7.85007 14.8115 7.86482C14.8115 7.90907 14.7345 7.90857 14.7172 7.86432C14.7077 7.83982 14.7185 7.80682 14.7448 7.78232C14.7858 7.74357 14.7855 7.73232 14.7397 7.59832L14.691 7.45582L14.6135 7.53757C14.481 7.67782 14.416 7.65432 14.3892 7.45707C14.3752 7.35387 14.3705 7.24963 14.375 7.14557C14.3765 7.12632 14.3892 7.11557 14.4032 7.12207C14.4172 7.12882 14.4292 7.11807 14.4292 7.09882C14.4295 7.07932 14.4767 7.01932 14.5337 6.96482C14.6217 6.88107 14.7967 6.61307 14.7992 6.55982C14.8007 6.52057 14.9242 6.26657 14.9432 6.26332C14.9547 6.26132 14.9642 6.24407 14.9642 6.22457C14.9642 6.20532 14.9847 6.16232 15.0092 6.12957C15.0337 6.09657 15.069 6.03607 15.0875 5.99507C15.106 5.95432 15.1602 5.89132 15.2085 5.85557C15.2567 5.81982 15.2965 5.77982 15.2965 5.76707C15.2965 5.75432 15.3228 5.74707 15.3555 5.74957C15.411 5.75432 15.4987 5.67382 15.481 5.63482C15.4772 5.62682 15.5 5.61257 15.5317 5.60357C15.7205 5.54857 15.7562 5.54807 15.8182 5.59832C15.8802 5.64807 15.8813 5.65282 15.8383 5.71057C15.7948 5.76932 15.7958 5.76932 15.8783 5.73582C15.951 5.70657 15.965 5.70907 15.977 5.75507C15.9863 5.79007 16.0115 5.80507 16.0508 5.79782C16.0838 5.79207 16.1487 5.81432 16.1947 5.84732C16.241 5.88007 16.3108 5.92232 16.35 5.94157C16.4775 6.00282 16.49 6.14207 16.377 6.23982C16.3245 6.28507 16.2995 6.29082 16.1952 6.27982C16.1287 6.27282 16.0572 6.25682 16.0362 6.24482C16.0091 6.22899 16.0108 6.23691 16.0413 6.26857C16.0648 6.29357 16.0845 6.35357 16.082 6.40132C16.0795 6.49632 16.1472 6.58382 16.213 6.57082C16.2477 6.56407 16.2467 6.56007 16.2085 6.54332C16.184 6.53282 16.164 6.49457 16.164 6.45857C16.164 6.38357 16.1815 6.37557 16.2515 6.41857C16.3225 6.46207 16.3658 6.44782 16.3495 6.38582C16.3303 6.31132 16.4632 6.15032 16.5395 6.15632C16.5937 6.16057 16.5952 6.15557 16.5805 6.02057C16.572 5.94332 16.5538 5.86707 16.54 5.85107C16.5218 5.83007 16.5282 5.81982 16.563 5.81407C16.714 5.78832 16.8013 5.87407 16.7115 5.95907C16.6875 5.98207 16.6745 6.01332 16.6845 6.02832C16.7127 6.07082 16.771 6.04957 16.788 5.99032C16.803 5.93882 16.9812 5.76582 17.028 5.75732C17.0405 5.75507 17.065 5.73282 17.0825 5.70757C17.1015 5.68134 17.1288 5.66224 17.16 5.65332C17.1945 5.64732 17.202 5.66082 17.1915 5.70807C17.18 5.75932 17.184 5.76382 17.212 5.73157C17.2369 5.70641 17.2686 5.68903 17.3032 5.68157C17.3347 5.67607 17.368 5.65732 17.3775 5.63982C17.387 5.62232 17.42 5.60982 17.4517 5.61232C17.483 5.61482 17.516 5.60832 17.5243 5.59782C17.5488 5.56782 17.493 5.48707 17.4533 5.49432C17.412 5.50157 17.3773 5.41507 17.4023 5.36782C17.4139 5.34682 17.4378 5.35016 17.474 5.37782C17.504 5.40107 17.5865 5.42957 17.6562 5.44157C17.7263 5.45332 17.828 5.49282 17.8822 5.52907C17.9777 5.59232 17.9805 5.59257 17.963 5.53407C17.953 5.50082 17.927 5.46207 17.9058 5.44832C17.8801 5.43166 17.8726 5.39974 17.8832 5.35257C17.8922 5.31357 17.8862 5.26082 17.8692 5.23532C17.8432 5.19657 17.8492 5.17032 17.9072 5.07282C17.945 5.00907 17.9755 4.93132 17.9755 4.90007C17.9755 4.86882 17.991 4.82457 18.0093 4.80182C18.0304 4.77407 18.0472 4.74331 18.0592 4.71057C18.0685 4.68307 18.0927 4.65807 18.1127 4.65432C18.1682 4.64432 18.1835 4.71682 18.1343 4.75582C18.0978 4.78482 18.1017 4.78857 18.1607 4.77882C18.2217 4.76882 18.2307 4.77782 18.2307 4.84907C18.2307 4.89407 18.2195 4.95532 18.2057 4.98532C18.1877 5.02357 18.1887 5.04457 18.2095 5.05432C18.2267 5.06232 18.232 5.05732 18.2227 5.04307C18.2137 5.02932 18.232 4.97982 18.2633 4.93257C18.2945 4.88557 18.3165 4.82707 18.3125 4.80257C18.3085 4.77857 18.3165 4.74882 18.3305 4.73757C18.359 4.71382 18.402 4.78182 18.398 4.84432C18.3943 4.90232 18.4405 4.91932 18.4722 4.87182C18.526 4.79107 18.6025 4.77732 18.6747 4.83432C18.713 4.86482 18.756 4.88707 18.7715 4.88432C18.7867 4.88182 18.7705 4.85632 18.7345 4.82782C18.6915 4.79382 18.6625 4.73507 18.6513 4.65882C18.6318 4.52432 18.6337 4.52257 18.852 4.45507C18.9895 4.41257 19.027 4.38032 18.9708 4.35407C18.9303 4.33507 18.9402 4.21232 18.983 4.20457C19.0055 4.20057 19.0148 4.18357 19.0058 4.16082C18.9958 4.13507 19.007 4.12007 19.042 4.11382C19.07 4.10882 19.0995 4.08682 19.107 4.06507C19.1145 4.04332 19.1645 4.00232 19.2183 3.97407C19.2718 3.94607 19.3267 3.90632 19.3407 3.88582C19.3797 3.82907 19.5063 3.78407 19.547 3.81207C19.567 3.82607 19.602 3.82432 19.6275 3.80807C19.6523 3.79257 19.7012 3.77732 19.7362 3.77457C19.7877 3.77032 19.7937 3.76407 19.768 3.74082C19.7195 3.69707 19.7297 3.67082 19.7992 3.65832C19.8442 3.65032 19.858 3.63632 19.8477 3.60982C19.8297 3.56407 19.9278 3.37657 19.9955 3.32632C20.0037 3.3204 20.0129 3.31576 20.0225 3.31257C20.0394 3.30711 20.0574 3.30574 20.075 3.30857C20.1275 3.31682 20.1732 3.35807 20.1612 3.40832C20.153 3.44257 20.1615 3.45932 20.185 3.45507C20.2052 3.45157 20.2287 3.46582 20.2367 3.48632C20.246 3.51007 20.2857 3.51832 20.3442 3.50832C20.4842 3.48457 20.5825 3.56957 20.5972 3.72707C20.6092 3.85632 20.5952 3.88282 20.4072 4.08457C20.3652 4.12982 20.365 4.13232 20.4125 4.13332C20.44 4.13382 20.472 4.14632 20.4825 4.16107C20.496 4.18032 20.5088 4.17532 20.5268 4.14357C20.5483 4.10607 20.5547 4.10757 20.5675 4.15432C20.58 4.20032 20.5935 4.20432 20.641 4.17682C20.72 4.13132 20.9105 4.14882 20.893 4.19982C20.8842 4.22516 20.9097 4.23832 20.9697 4.23932C21.0792 4.24132 21.1138 4.21557 21.1138 4.13232C21.1138 4.04482 21.1498 4.02257 21.2393 4.05532C21.281 4.07032 21.3368 4.07907 21.3633 4.07432C21.4568 4.05757 21.4983 4.13632 21.4918 4.31782C21.4865 4.45832 21.494 4.49107 21.5357 4.51557C21.582 4.54307 21.5873 4.53807 21.607 4.45307C21.636 4.32832 21.665 4.29807 21.6987 4.35857C21.7207 4.39782 21.7437 4.40282 21.8002 4.38107C21.8432 4.36432 21.8808 4.36357 21.8915 4.38007C21.905 4.40032 21.9207 4.39582 21.9515 4.36082C21.9747 4.33482 22.0058 4.31332 22.0195 4.31332C22.0333 4.31382 22.048 4.29232 22.0527 4.26582C22.0575 4.23907 22.0493 4.21907 22.0343 4.22182C22.0193 4.22432 22.0068 4.20857 22.0068 4.18682C22.0068 4.16432 22.0287 4.14307 22.0557 4.13832C22.0825 4.13332 22.109 4.11507 22.1143 4.09782C22.1293 4.04807 22.6148 4.08657 22.6445 4.13982C22.6578 4.16307 22.662 4.19032 22.6537 4.20032C22.6457 4.21032 22.6687 4.22107 22.7055 4.22407C22.7275 4.22607 22.7385 4.23307 22.75 4.24032V2.46757C22.468 2.46182 22.32 2.45432 21.6768 2.45757ZM19.8143 3.25407C19.8435 3.24882 19.8602 3.25782 19.8517 3.27407C19.831 3.31232 19.7617 3.32482 19.7617 3.29007C19.7617 3.27532 19.7855 3.25907 19.8143 3.25407ZM22.1655 3.33907C22.185 3.34082 22.2143 3.35357 22.263 3.37907C22.326 3.41157 22.4062 3.43407 22.4415 3.42882C22.5105 3.41882 22.6232 3.44132 22.5815 3.45707C22.5675 3.46232 22.5902 3.46782 22.6322 3.46957C22.7167 3.47357 22.7325 3.52732 22.6655 3.58357C22.6113 3.62932 22.4415 3.58182 22.4415 3.52107C22.4415 3.46274 22.4028 3.47807 22.3253 3.56707C22.288 3.60957 22.2273 3.64982 22.19 3.65632C22.1528 3.66282 22.0858 3.68257 22.0415 3.70032C21.973 3.72757 21.9542 3.72282 21.9175 3.67032C21.8375 3.55707 21.92 3.35032 22.0165 3.35782C22.0319 3.3591 22.0466 3.36512 22.0585 3.37507C22.1003 3.40732 22.1073 3.40632 22.127 3.36582C22.1365 3.34632 22.146 3.33707 22.1655 3.33882M21.8285 3.45582C21.8425 3.45332 21.8545 3.48732 21.8545 3.53157C21.8545 3.57557 21.8425 3.61407 21.8285 3.61657C21.8145 3.61907 21.8032 3.58507 21.8032 3.54082C21.8032 3.49682 21.8145 3.45832 21.8285 3.45582ZM22.1112 3.76332C22.1372 3.76832 22.16 3.80432 22.1445 3.83332C22.1375 3.84632 22.153 3.85332 22.1793 3.84832C22.2393 3.83782 22.288 3.87907 22.288 3.94132C22.288 3.97832 22.269 3.99157 22.205 4.00082C22.1628 4.00694 22.1201 4.00945 22.0775 4.00832C22.0292 4.00332 22.0157 3.95757 22.0605 3.94957C22.0775 3.94657 22.082 3.91632 22.0718 3.86982C22.0618 3.82407 22.0668 3.78557 22.0855 3.77032C22.089 3.76729 22.0931 3.76511 22.0976 3.76394C22.1021 3.76277 22.1067 3.76239 22.1112 3.76332ZM17.9405 3.88432C17.9778 3.87407 18.0045 3.88982 18.0155 3.93357C18.0397 4.02982 17.991 4.10007 17.8263 4.20707C17.737 4.26507 17.6407 4.35257 17.5938 4.41957L17.463 4.60707C17.435 4.64707 17.377 4.76432 17.334 4.86832C17.2457 5.08207 17.2473 5.20232 17.339 5.28832C17.3678 5.31582 17.3828 5.34732 17.3705 5.35757C17.3415 5.38157 17.195 5.40307 17.165 5.38757C17.1523 5.38132 17.134 5.34457 17.1245 5.30582C17.113 5.25849 17.0904 5.23799 17.0567 5.24432C17.0195 5.25082 17.0058 5.23507 17.0058 5.18457C17.0058 5.14582 17.0172 5.12132 17.0317 5.12807C17.056 5.13982 17.0675 5.10232 17.0585 5.03432C17.056 5.01507 17.0745 4.96382 17.0995 4.92007C17.1245 4.87632 17.142 4.82707 17.1388 4.81057C17.1353 4.79432 17.157 4.73307 17.187 4.67432C17.2178 4.61432 17.2358 4.54557 17.228 4.51607C17.2192 4.48141 17.2288 4.45607 17.2568 4.44007C17.2803 4.42682 17.3525 4.34932 17.417 4.26807C17.517 4.14257 17.5485 4.11882 17.6275 4.10707C17.6995 4.09632 17.7395 4.07032 17.8048 3.99207C17.8558 3.93132 17.9033 3.89457 17.9405 3.88457M15.355 4.05007C15.3994 4.04431 15.4443 4.05527 15.481 4.08082L15.5352 4.12432L15.4755 4.20182C15.418 4.27657 15.3275 4.32432 15.3605 4.26307C15.369 4.24682 15.3545 4.23732 15.328 4.24207C15.2898 4.24882 15.2798 4.23132 15.2823 4.15657C15.2838 4.07232 15.2912 4.06157 15.355 4.05007ZM15.1427 4.09557C15.1752 4.09457 15.1945 4.09757 15.1945 4.10532C15.1944 4.11268 15.1918 4.11977 15.1871 4.12545C15.1824 4.13113 15.1759 4.13505 15.1687 4.13657C15.1547 4.13907 15.1433 4.15857 15.1433 4.18007C15.1433 4.20157 15.1237 4.28957 15.0997 4.37532C15.0535 4.54107 15.0012 4.58432 14.9747 4.47882C14.966 4.44382 14.9445 4.41757 14.9265 4.42082C14.8848 4.42832 14.8558 4.32007 14.8918 4.29032C14.9088 4.27632 14.9097 4.26582 14.8942 4.26257C14.8805 4.25957 14.861 4.23132 14.8512 4.20007C14.8337 4.14482 14.8388 4.14207 15.0138 4.11057V4.11107C15.0655 4.10207 15.1105 4.09657 15.1427 4.09557ZM20.3377 4.23857C20.3394 4.23241 20.3318 4.23424 20.3148 4.24407C20.289 4.25832 20.2572 4.27182 20.2445 4.27407C20.2315 4.27657 20.221 4.29607 20.221 4.31807C20.221 4.37057 20.2272 4.36832 20.3 4.28682C20.3144 4.27233 20.3273 4.25613 20.3377 4.23857ZM18.8008 5.02757C18.7938 5.04365 18.7894 5.06067 18.7875 5.07807C18.778 5.12807 18.7813 5.14557 18.7975 5.12582C18.8119 5.10238 18.8173 5.07444 18.8125 5.04732C18.8088 5.02949 18.8049 5.02291 18.8008 5.02757ZM18.2445 5.10732C18.2352 5.11857 18.2313 5.17382 18.231 5.27657C18.2305 5.47757 18.2673 5.57682 18.3115 5.49507C18.324 5.47207 18.316 5.45757 18.2905 5.45632C18.2565 5.45482 18.2522 5.42782 18.2647 5.30007C18.273 5.21532 18.2685 5.13007 18.2553 5.11057C18.2513 5.10474 18.2477 5.10366 18.2445 5.10732ZM18.2812 5.58782C18.2672 5.59032 18.2558 5.61532 18.2558 5.64382C18.2558 5.67232 18.2445 5.70557 18.2305 5.71707C18.205 5.73807 18.1943 5.81707 18.2173 5.81282C18.224 5.81157 18.2465 5.77207 18.268 5.72482C18.3132 5.62532 18.3172 5.58132 18.2812 5.58782ZM16.8853 5.60732C16.8973 5.60532 16.9103 5.61357 16.9328 5.63057C16.9778 5.66557 16.9777 5.67132 16.9377 5.72432C16.8942 5.78282 16.8488 5.80307 16.8188 5.77707C16.79 5.75207 16.7995 5.69732 16.8428 5.64457C16.8618 5.62107 16.8733 5.60907 16.8853 5.60707M18.1645 5.83807C18.152 5.83904 18.1398 5.84235 18.1285 5.84782C18.1005 5.86032 18.0772 5.87532 18.0772 5.88082C18.0772 5.88632 18.1002 5.88682 18.1285 5.88182C18.1567 5.87682 18.1793 5.86182 18.1793 5.84882C18.1789 5.84199 18.174 5.83841 18.1645 5.83807ZM22.6782 6.01282C22.6642 6.01157 22.6402 6.01882 22.6007 6.03382C22.548 6.05382 22.4463 6.07907 22.3745 6.09032C22.245 6.11082 22.2432 6.11257 22.109 6.30232C22.0345 6.40732 21.9385 6.53232 21.895 6.58007C21.8368 6.64432 21.8275 6.66532 21.859 6.66007C21.8891 6.65849 21.9186 6.66851 21.9415 6.68807C21.9635 6.70732 21.982 6.71007 21.982 6.69432C21.982 6.65182 22.073 6.64357 22.1095 6.68307C22.1513 6.72857 22.2215 6.71607 22.202 6.66657C22.1935 6.64457 22.202 6.62657 22.222 6.62307C22.2628 6.61582 22.2875 6.69307 22.2875 6.82857C22.2875 6.88207 22.3055 6.97357 22.3267 7.03282C22.3697 7.15332 22.3613 7.18507 22.2973 7.14107C22.2578 7.11382 22.2555 7.12232 22.27 7.25007C22.279 7.32857 22.276 7.38457 22.2633 7.37857C22.2508 7.37257 22.2327 7.38232 22.2232 7.40007C22.1952 7.45232 22.3147 7.54557 22.372 7.51607C22.407 7.49832 22.4163 7.50157 22.4028 7.52682C22.392 7.54682 22.399 7.57032 22.4177 7.57932C22.4435 7.59107 22.4353 7.60457 22.3853 7.63332C22.3485 7.65457 22.3105 7.68757 22.3008 7.70607C22.2903 7.72557 22.2557 7.73757 22.2192 7.73457C22.1622 7.72957 22.1583 7.73457 22.1768 7.78657C22.2053 7.86707 22.1993 7.98157 22.1562 8.14357C22.1263 8.25732 22.1063 8.28907 22.0445 8.31932C21.9969 8.34327 21.9505 8.36939 21.9053 8.39757C21.8703 8.42007 21.83 8.44207 21.816 8.44757C21.7342 8.47607 21.6243 8.56732 21.6005 8.62607C21.5698 8.70257 21.5225 8.69807 21.5225 8.61857C21.5225 8.59007 21.511 8.56857 21.497 8.57107C21.446 8.58007 21.4732 8.51707 21.567 8.41032C21.635 8.33232 21.6865 8.29632 21.746 8.28582C21.8103 8.27407 21.8367 8.25432 21.859 8.19882C21.8777 8.15232 21.9083 8.12307 21.9465 8.11632C22.0255 8.10207 22.0615 8.01532 22.0615 7.83882C22.0615 7.72757 22.0737 7.67882 22.1122 7.63432C22.1557 7.58432 22.1653 7.52932 22.1768 7.24932C22.186 7.02357 22.1818 6.92382 22.1625 6.92732C22.1475 6.92982 22.1348 6.97482 22.1348 7.02682C22.1348 7.16057 22.0682 7.31432 21.8925 7.58682C21.7937 7.74032 21.7132 7.80432 21.6397 7.78757C21.602 7.77932 21.5222 7.86757 21.5222 7.91807C21.5222 7.93432 21.493 7.97707 21.4573 8.01307L21.3915 8.07857L21.4457 8.14657C21.4824 8.19174 21.4979 8.24449 21.4923 8.30482C21.4853 8.38132 21.47 8.40182 21.3888 8.44582L21.293 8.49757L21.2895 8.39957C21.2872 8.35544 21.2872 8.31121 21.2895 8.26707C21.292 8.24832 21.2772 8.24307 21.257 8.25507C21.205 8.28507 21.182 8.23682 21.2148 8.16707C21.2385 8.11682 21.2348 8.10957 21.1895 8.11782C21.1605 8.12282 21.1082 8.15182 21.0732 8.18232C20.9945 8.25057 20.9763 8.23732 21.0103 8.13782L21.036 8.06107L20.936 8.15432C20.8435 8.24057 20.8392 8.25057 20.8765 8.28707C20.902 8.31207 20.927 8.31607 20.9447 8.29732C20.9785 8.26232 21.1133 8.26082 21.1133 8.29557C21.1133 8.30882 21.0923 8.33157 21.0678 8.34557C21.0345 8.36772 21.0043 8.3942 20.978 8.42432C20.934 8.47507 20.9348 8.48257 21.0063 8.59732C21.0605 8.68407 21.0748 8.72982 21.0575 8.76532C21.0428 8.79632 21.0437 8.81257 21.06 8.80957C21.1247 8.79807 20.923 9.17457 20.8018 9.29207C20.7555 9.33682 20.6482 9.40557 20.5635 9.44532C20.429 9.50857 20.409 9.52657 20.4042 9.58757C20.3942 9.71482 20.2887 9.80157 20.2535 9.71157C20.243 9.68482 20.258 9.64832 20.296 9.60957C20.3285 9.57607 20.348 9.54307 20.3398 9.53582C20.3113 9.51082 20.2072 9.57457 20.1737 9.63732C20.1437 9.69357 20.1507 9.70932 20.2442 9.79882C20.3332 9.88457 20.3477 9.91482 20.3477 10.0196C20.3477 10.1266 20.339 10.1466 20.2773 10.1861C20.2371 10.2124 20.2021 10.2456 20.1737 10.2843C20.1287 10.3558 20.067 10.3631 20.067 10.2968C20.067 10.2668 20.0502 10.2468 20.0282 10.2506C20.0171 10.2522 20.0058 10.2501 19.996 10.2446C19.9862 10.2391 19.9785 10.2306 19.974 10.2203C19.966 10.1996 19.9432 10.1853 19.924 10.1891C19.9042 10.1926 19.8888 10.1768 19.8888 10.1548C19.8888 10.1328 19.8767 10.1173 19.8627 10.1198C19.8335 10.1248 19.8285 10.3661 19.857 10.4023C19.867 10.4156 19.906 10.4406 19.9428 10.4586C19.9627 10.4698 19.9802 10.485 19.9941 10.5032C20.008 10.5214 20.018 10.5423 20.0235 10.5646C20.031 10.6046 20.0453 10.6626 20.0553 10.6938C20.0698 10.7398 20.0635 10.7526 20.0228 10.7598C19.9468 10.7733 19.8447 10.6768 19.814 10.5626C19.799 10.5066 19.769 10.4491 19.748 10.4346C19.7222 10.4171 19.711 10.3621 19.7135 10.2653C19.7155 10.1678 19.704 10.1111 19.6768 10.0876C19.6517 10.0639 19.6325 10.0348 19.6205 10.0026C19.603 9.94807 19.5693 9.94207 19.544 9.98932C19.5353 10.0056 19.5058 10.0231 19.4785 10.0278C19.44 10.0348 19.4293 10.0178 19.4293 9.95232C19.4255 9.89535 19.4049 9.84078 19.37 9.79557C19.3395 9.75931 19.3137 9.71943 19.293 9.67682C19.2797 9.64182 19.2673 9.63882 19.2423 9.66507C19.224 9.68432 19.1723 9.70907 19.1273 9.72082C19.0823 9.73232 19.0467 9.75682 19.0467 9.77557C19.0467 9.79407 19.0117 9.83457 18.9697 9.86482C18.9277 9.89507 18.8935 9.92957 18.8935 9.94207C18.8935 9.95457 18.837 10.0156 18.7685 10.0771C18.646 10.1866 18.644 10.1931 18.6465 10.3221C18.6477 10.4116 18.663 10.4666 18.6943 10.4938C18.7818 10.5698 18.7455 10.7466 18.6388 10.7658C18.6023 10.7723 18.5853 10.6423 18.6143 10.5801C18.6588 10.4851 18.6218 10.4878 18.5518 10.5846C18.4958 10.6621 18.4842 10.6686 18.453 10.6388C18.3895 10.5783 18.2022 10.1231 18.1982 10.0196C18.1947 9.92957 18.1883 9.92132 18.1348 9.94157C18.0743 9.96432 17.9748 9.91257 17.9748 9.85757C17.9743 9.84157 17.9442 9.80382 17.9077 9.77407C17.8485 9.72557 17.8177 9.72382 17.6147 9.75582C17.4782 9.77757 17.3723 9.78157 17.3498 9.76582C17.3188 9.74432 17.3115 9.74757 17.3115 9.78332C17.3115 9.80732 17.3517 9.83982 17.401 9.85557C17.505 9.88907 17.5195 9.97207 17.439 10.0708C17.411 10.1053 17.3883 10.1418 17.3883 10.1523C17.3883 10.1883 17.2225 10.3498 17.1772 10.3581C17.1525 10.3623 17.1128 10.3936 17.0888 10.4273C17.0648 10.4611 17.0337 10.4911 17.019 10.4938C17.0045 10.4963 16.963 10.5201 16.9268 10.5463C16.8596 10.5906 16.7898 10.6307 16.7178 10.6666C16.5935 10.7298 16.5782 10.7446 16.602 10.7803C16.6265 10.8168 16.6445 10.8156 16.7603 10.7666C16.832 10.7366 16.9158 10.6988 16.9463 10.6831C17.1063 10.6013 16.9325 11.0731 16.7148 11.3116L16.5855 11.4536L16.5435 11.4878L16.4805 11.5728C16.3712 11.7193 16.342 11.8033 16.355 11.9356C16.3617 12.0033 16.3757 12.0713 16.3862 12.0866C16.3967 12.1018 16.4072 12.1891 16.4097 12.2808C16.4135 12.4301 16.4067 12.4541 16.3487 12.5123C16.313 12.5481 16.2715 12.5798 16.2558 12.5831C16.2403 12.5863 16.1957 12.6288 16.1567 12.6773C16.1017 12.7461 16.0903 12.7773 16.1065 12.8203C16.142 12.9151 16.1137 13.0528 16.0497 13.0948C16.0155 13.1173 15.9857 13.1673 15.9765 13.2168C15.959 13.3131 15.776 13.6228 15.685 13.7111C15.6305 13.7641 15.34 13.8766 15.207 13.8966C15.1442 13.9061 15.0855 13.8366 15.101 13.7711C15.1132 13.7198 15.0353 13.5396 14.9735 13.4771C14.954 13.4571 14.9223 13.3603 14.9038 13.2621C14.8705 13.0858 14.81 12.9396 14.7603 12.9161C14.7043 12.8898 14.7503 12.6216 14.8295 12.5108C14.8405 12.4957 14.848 12.4782 14.8514 12.4598C14.8548 12.4414 14.8539 12.4224 14.849 12.4043C14.8379 12.3681 14.8295 12.3311 14.824 12.2936C14.811 12.1903 14.759 12.0918 14.67 12.0046C14.6213 11.9568 14.581 11.9001 14.581 11.8781C14.581 11.8761 14.5772 11.8756 14.5772 11.8741L14.5825 11.8726L14.601 11.8076L14.6185 11.7071C14.639 11.5898 14.6047 11.5578 14.5005 11.5963C14.4485 11.6153 14.4225 11.6078 14.391 11.5631C14.3427 11.4943 14.2697 11.5011 14.131 11.5876C14.0765 11.6213 13.9635 11.6651 13.8795 11.6841C13.812 11.6993 13.7446 11.715 13.6772 11.7311C13.6127 11.7471 13.3567 11.6068 13.3305 11.5411C13.3192 11.5128 13.2688 11.4553 13.2183 11.4136C13.1678 11.3718 13.127 11.3173 13.127 11.2916C13.127 11.2878 13.125 11.2846 13.1245 11.2808V18.4078C13.1538 18.3978 13.197 18.3693 13.2285 18.3378C13.2635 18.3028 13.3103 18.2708 13.3325 18.2666C13.3548 18.2623 13.3887 18.2253 13.4082 18.1836C13.46 18.0728 13.586 17.9476 13.6407 17.9528C13.6662 17.9553 13.694 17.9451 13.7017 17.9303C13.7095 17.9153 13.7525 17.8973 13.7972 17.8893C13.8422 17.8813 13.9193 17.8461 13.9683 17.8118C14.042 17.7598 14.0558 17.7363 14.0498 17.6768C14.044 17.6193 14.0538 17.6026 14.0953 17.5953C14.1238 17.5903 14.1465 17.6018 14.1465 17.6211C14.1465 17.6403 14.1627 17.6761 14.1825 17.7003C14.214 17.7396 14.2535 17.7388 14.5267 17.6911C14.6967 17.6611 14.836 17.6286 14.836 17.6178C14.836 17.6071 14.8658 17.5723 14.9023 17.5406C14.9648 17.4866 14.9707 17.4853 14.9932 17.5236C15.0087 17.5498 15.0502 17.5591 15.1112 17.5488C15.1632 17.5403 15.2462 17.5408 15.2955 17.5503C15.412 17.5728 15.568 17.5551 15.5883 17.5166C15.5973 17.5001 15.6302 17.4818 15.662 17.4761C15.694 17.4706 15.7477 17.4298 15.7817 17.3858C15.8287 17.3251 15.8602 17.3066 15.9135 17.3083C15.952 17.3093 15.9835 17.3021 15.981 17.2916C15.9652 17.1856 16.0205 17.1726 16.1235 17.2591C16.2243 17.3433 16.3255 17.3416 16.337 17.2551C16.3415 17.2208 16.3763 17.1706 16.415 17.1426C16.4547 17.114 16.4902 17.08 16.5205 17.0416C16.567 16.9746 16.766 16.8421 16.798 16.8571C16.8118 16.8636 16.8335 16.8471 16.8468 16.8198C16.8615 16.7898 16.8868 16.7741 16.913 16.7798C16.9435 16.7866 16.9535 16.7773 16.948 16.7456C16.939 16.6903 17.065 16.6001 17.1742 16.5836C17.2695 16.5691 17.395 16.6261 17.378 16.6761C17.3608 16.7256 17.6055 16.7486 17.8765 16.7223C18.0762 16.7031 18.0995 16.7066 18.1245 16.7598C18.149 16.8118 18.1585 16.8133 18.204 16.7756C18.2503 16.7371 18.2663 16.7411 18.3465 16.8161C18.4225 16.8868 18.4447 16.8951 18.4867 16.8638C18.5142 16.8436 18.5297 16.8153 18.521 16.8018C18.4985 16.7678 18.6037 16.6381 18.6817 16.6036C18.717 16.5881 18.739 16.5691 18.7305 16.5616C18.722 16.5541 18.7277 16.5296 18.7437 16.5066C18.7655 16.4748 18.7647 16.4498 18.7397 16.4053C18.714 16.3578 18.714 16.3366 18.7397 16.2993C18.768 16.2586 18.777 16.2586 18.814 16.2973C18.8682 16.3543 18.9372 16.3511 19.042 16.2866C19.1197 16.2391 19.129 16.2386 19.1635 16.2841C19.196 16.3273 19.2185 16.3283 19.3345 16.2941C19.4962 16.2461 19.5317 16.2136 19.5317 16.1133C19.5317 16.0488 19.5425 16.0346 19.5968 16.0251C19.6323 16.0186 19.667 16.0293 19.6747 16.0488C19.6972 16.1063 19.7652 16.1063 19.816 16.0493C19.8527 16.0078 19.8705 16.0026 19.8995 16.0226C19.9282 16.0426 19.941 16.0381 19.958 16.0031C19.987 15.9433 20.078 15.9538 20.1173 16.0211C20.134 16.0498 20.1862 16.0858 20.2335 16.1006C20.3165 16.1271 20.322 16.1251 20.4268 16.0328C20.5555 15.9191 20.581 15.9123 20.6245 15.9778C20.643 16.0053 20.6738 16.0178 20.6938 16.0063C20.7048 16.0009 20.7171 15.9988 20.7293 16.0001C20.7415 16.0014 20.7531 16.0062 20.7628 16.0138C20.804 16.0496 20.904 16.0598 20.9508 16.0328C20.9703 16.0213 20.9862 15.9773 20.9862 15.9346C20.9862 15.8428 21.017 15.8298 21.0672 15.9006C21.0962 15.9408 21.114 15.9443 21.1507 15.9161C21.2067 15.8736 21.3678 15.8883 21.3873 15.9381C21.4098 15.9956 21.467 15.9608 21.4835 15.8796C21.4985 15.8036 21.5038 15.8001 21.621 15.7911C21.738 15.7821 21.745 15.7778 21.7763 15.6931C21.7948 15.6431 21.8157 15.6183 21.8312 15.6181C21.8455 15.6188 21.8548 15.6443 21.8458 15.6956C21.8363 15.7491 21.8472 15.7661 21.9005 15.7781C21.9762 15.7946 22.1485 15.8038 22.2983 15.7988C22.4243 15.7948 22.447 15.8056 22.4287 15.8588C22.4187 15.8876 22.439 15.9063 22.4907 15.9176C22.5327 15.9266 22.5672 15.9436 22.5672 15.9551C22.5672 15.9666 22.6357 15.9641 22.7192 15.9493C22.7332 15.9468 22.7375 15.9481 22.7495 15.9463V12.5166C22.7058 12.6191 22.6705 12.7183 22.6705 12.7456C22.6705 12.7821 22.6542 12.8046 22.623 12.8101C22.5967 12.8148 22.546 12.8476 22.5103 12.8833C22.4378 12.9563 22.4318 12.9591 22.4048 12.9358C22.3943 12.9266 22.3345 12.9268 22.272 12.9361C22.1472 12.9548 22.0657 12.9121 22.0532 12.8218C22.0475 12.7801 22.0182 12.7638 21.939 12.7578C21.835 12.7503 21.79 12.7318 21.79 12.6958C21.7898 12.6508 21.7065 12.5828 21.6373 12.5703C21.5353 12.5523 21.1905 12.6861 21.1905 12.7438C21.1905 12.7548 21.138 12.7813 21.0737 12.8018C21.0095 12.8223 20.925 12.8646 20.8862 12.8956C20.8247 12.9446 20.8058 12.9491 20.7423 12.9283C20.6743 12.9063 20.669 12.8928 20.6665 12.7443C20.6648 12.6426 20.645 12.5478 20.6122 12.4841C20.575 12.4111 20.5625 12.3416 20.5678 12.2311C20.576 12.0593 20.5903 12.0191 20.6388 12.0298C20.657 12.0341 20.6865 12.0158 20.7045 11.9898C20.7225 11.9638 20.755 11.9393 20.7763 11.9356C20.7975 11.9318 20.8588 11.9071 20.913 11.8806C20.9905 11.8423 21.0205 11.8081 21.0543 11.7228C21.0778 11.6628 21.1063 11.6178 21.1173 11.6231C21.1283 11.6283 21.1685 11.5906 21.2065 11.5391C21.2745 11.4471 21.376 11.4016 21.4072 11.4488C21.433 11.4881 21.456 11.4713 21.502 11.3786C21.5258 11.3301 21.564 11.2873 21.5865 11.2833C21.6115 11.2788 21.6195 11.2648 21.609 11.2486C21.596 11.2291 21.6123 11.2226 21.665 11.2271C21.7167 11.2306 21.7685 11.2295 21.82 11.2238C21.9282 11.2103 21.941 11.2278 21.896 11.3273C21.858 11.4113 21.858 11.4118 21.9718 11.4636C22.0343 11.4921 22.0953 11.5136 22.1068 11.5113C22.1325 11.5068 22.1602 11.3688 22.1602 11.2463C22.1602 11.1976 22.1795 11.1341 22.203 11.1051C22.2128 11.0924 22.221 11.0837 22.2275 11.0788C22.2325 11.0752 22.2369 11.074 22.2407 11.0753C22.2527 11.0793 22.2623 11.1078 22.2803 11.1696C22.3003 11.2381 22.3297 11.2841 22.351 11.2803C22.3835 11.2746 22.4405 11.4123 22.4405 11.4971C22.4405 11.5146 22.475 11.5441 22.517 11.5626C22.5593 11.5811 22.5938 11.6043 22.5938 11.6143C22.5938 11.6243 22.6225 11.6558 22.6572 11.6843C22.6922 11.7126 22.721 11.7468 22.7213 11.7608C22.7213 11.7668 22.7405 11.7848 22.7495 11.7976V10.7251C22.7165 10.7474 22.6789 10.7619 22.6395 10.7676C22.507 10.7806 22.4995 10.8351 22.62 10.9151C22.6753 10.9518 22.7145 10.9926 22.7075 11.0061C22.6835 11.0508 22.5315 11.0273 22.4468 10.9653C22.3473 10.8928 22.3243 10.8933 22.288 10.9708C22.256 11.0391 22.155 11.0658 22.1105 11.0171C22.0897 10.9951 22.0547 10.9934 22.0055 11.0121C21.923 11.0443 21.9165 11.0343 21.9625 10.9488C21.986 10.9038 21.986 10.8853 21.9625 10.8648C21.9295 10.8363 21.7605 10.7986 21.7055 10.8078C21.667 10.8141 21.6267 10.7796 21.5775 10.6983C21.549 10.6508 21.549 10.6371 21.5775 10.6128C21.5925 10.6098 21.6167 10.6008 21.643 10.5938H21.6435C21.6679 10.5859 21.6936 10.5828 21.7192 10.5846L21.7218 10.5841V10.5846C21.7395 10.5853 21.7652 10.6138 21.7787 10.6491L21.8037 10.7131L21.875 10.6476L21.9457 10.5811L22.149 10.6128C22.2665 10.6311 22.3775 10.6678 22.412 10.6993C22.46 10.7431 22.487 10.7476 22.5487 10.7223C22.5912 10.7048 22.6405 10.6861 22.6577 10.6803C22.6752 10.6746 22.709 10.6458 22.7327 10.6163C22.7395 10.6081 22.7435 10.6088 22.7495 10.6026V6.06357C22.7138 6.07307 22.6963 6.06957 22.6963 6.04157C22.6963 6.02332 22.6922 6.01407 22.6782 6.01282ZM15.8425 6.98507C15.8187 6.98932 15.8183 7.00457 15.84 7.04907C15.865 7.10057 15.9342 7.10232 15.9342 7.05157C15.9342 7.02157 15.8757 6.97907 15.8425 6.98507ZM22.6868 7.29382C22.692 7.29507 22.696 7.29982 22.696 7.30832C22.696 7.32282 22.6783 7.34482 22.656 7.35782C22.631 7.37207 22.6195 7.36857 22.6257 7.34782C22.6352 7.31632 22.67 7.29007 22.6868 7.29382ZM22.5725 7.36207C22.613 7.35482 22.584 7.41857 22.5222 7.47257C22.4897 7.50082 22.4665 7.50982 22.4665 7.49357C22.4665 7.45757 22.5388 7.36807 22.5725 7.36207ZM15.4213 7.42157C15.4176 7.41991 15.4136 7.41935 15.4097 7.41998C15.4058 7.4206 15.4022 7.42238 15.3993 7.42507C15.3833 7.43832 15.3855 7.46307 15.4055 7.49307C15.4395 7.54332 15.464 7.50607 15.4392 7.44257C15.4361 7.43363 15.4297 7.42597 15.4213 7.42157ZM15.156 7.48257C15.2018 7.47432 15.2065 7.53082 15.1637 7.58307C15.1202 7.63657 15.084 7.63682 15.1023 7.58357C15.1108 7.55857 15.118 7.52732 15.118 7.51357C15.118 7.50032 15.135 7.48607 15.156 7.48257ZM17.5135 8.25057C17.497 8.25368 17.4815 8.2609 17.4685 8.27157C17.4033 8.32007 17.3967 8.41157 17.4585 8.41507C17.5125 8.41807 17.5043 8.42557 17.5368 8.35357C17.5668 8.28832 17.552 8.24607 17.514 8.25057H17.5135ZM17.0777 8.26432C17.0558 8.25906 17.0328 8.25941 17.011 8.26532C16.933 8.28282 16.814 8.37707 16.7913 8.43957C16.7698 8.49857 16.8212 8.62732 16.9045 8.72282C16.9485 8.77332 16.973 8.81682 16.9583 8.81932C16.9435 8.82182 16.9183 8.85207 16.902 8.88632C16.877 8.93982 16.8832 8.95532 16.946 8.99807C16.986 9.02557 17.0335 9.03907 17.0525 9.02882C17.0706 9.0188 17.09 9.01108 17.11 9.00582C17.145 8.99982 17.1383 8.88657 17.1 8.83307C17.0813 8.80732 17.064 8.74832 17.0613 8.70182C17.0583 8.64982 17.0267 8.58807 16.9797 8.54257C16.9297 8.49382 16.9137 8.46232 16.9347 8.45132C16.9606 8.43462 16.9837 8.41405 17.0033 8.39032C17.0157 8.37706 17.0306 8.36638 17.0471 8.35892C17.0637 8.35145 17.0816 8.34734 17.0998 8.34682C17.1568 8.34807 17.1585 8.34482 17.1243 8.29782C17.1131 8.28161 17.0967 8.26977 17.0777 8.26432ZM16.2 8.42932C16.1842 8.43038 16.1689 8.43459 16.1548 8.44172C16.1407 8.44886 16.1282 8.45875 16.118 8.47082C16.0793 8.51832 16.0815 8.52082 16.1443 8.50982C16.1818 8.50307 16.2193 8.48432 16.2278 8.46782C16.242 8.44132 16.2253 8.42857 16.2 8.42932ZM15.9085 8.51807C15.881 8.51882 15.8472 8.53057 15.8322 8.55182C15.8172 8.57307 15.778 8.65182 15.7448 8.72607C15.6923 8.84457 15.6893 8.86582 15.722 8.89407C15.769 8.93507 15.8562 8.91857 15.9202 8.85657C15.9842 8.79432 16.0985 8.77457 16.1472 8.81707C16.1905 8.85457 16.361 8.83182 16.4193 8.78082C16.451 8.75282 16.4423 8.73632 16.368 8.68332C16.2255 8.58107 16.1455 8.56082 16.0745 8.60757C16.0262 8.63907 16.0055 8.63957 15.9725 8.61082C15.9497 8.59107 15.9375 8.56282 15.945 8.54832C15.9565 8.52707 15.9357 8.51732 15.9085 8.51832M17.1155 8.66732C17.1108 8.67066 17.1083 8.67632 17.108 8.68432C17.108 8.70007 17.1195 8.71032 17.1335 8.70782C17.1475 8.70532 17.159 8.69832 17.159 8.69182C17.159 8.68532 17.1475 8.67432 17.1335 8.66782C17.1262 8.66449 17.1202 8.66432 17.1155 8.66732ZM14.844 8.74357C14.8397 8.74482 14.8343 8.75732 14.8245 8.78307C14.8107 8.81924 14.8158 8.84491 14.84 8.86007C14.86 8.87282 14.8965 8.91307 14.9215 8.94957C14.9465 8.98607 14.978 9.00707 14.9915 8.99582C15.005 8.98482 15.0228 8.99257 15.031 9.01332C15.0393 9.03457 15.067 9.05507 15.0925 9.05882C15.1392 9.06632 15.1813 9.13282 15.1575 9.16182C15.1505 9.17057 15.1257 9.16432 15.1025 9.14832C15.0642 9.12207 15.0618 9.12407 15.0775 9.17357C15.09 9.21257 15.0795 9.24857 15.0425 9.29357C15.0137 9.32907 14.9905 9.36932 14.9905 9.38307C14.9905 9.43357 14.9393 9.44807 14.862 9.42032C14.7695 9.38657 14.7745 9.33007 14.8713 9.31082C14.987 9.28832 15.0123 9.22932 14.9333 9.16682C14.8958 9.13682 14.8542 9.11457 14.841 9.11682C14.8135 9.12182 14.671 8.98257 14.652 8.93257C14.642 8.90582 14.6175 8.91507 14.5395 8.97432C14.467 9.02932 14.4275 9.04507 14.3958 9.03207C14.3413 9.00982 14.3015 9.04057 14.3015 9.10482C14.3015 9.13157 14.2615 9.19232 14.2122 9.24057C14.1557 9.29557 14.1228 9.35107 14.1228 9.39007C14.1228 9.48082 14.016 9.60657 13.9152 9.63457C13.868 9.64782 13.8293 9.67057 13.8293 9.68532C13.8293 9.73332 13.9975 9.69257 14.0843 9.62332C14.1673 9.55707 14.6287 9.41182 14.7032 9.42832C14.742 9.43732 14.746 9.60532 14.7083 9.63657C14.6673 9.67057 14.7618 9.71732 14.8435 9.70407C14.8871 9.699 14.931 9.711 14.966 9.73757C15.051 9.81157 15.1945 9.83282 15.1945 9.77132C15.1945 9.68057 15.3482 9.57757 15.4122 9.62582C15.4257 9.63582 15.5022 9.65382 15.5817 9.66482C15.6912 9.68032 15.748 9.67432 15.8153 9.64282C15.8648 9.61957 15.9137 9.61032 15.926 9.62082C15.9637 9.65382 16.0648 9.58982 16.0895 9.51732C16.1025 9.47932 16.113 9.39982 16.113 9.34107C16.113 9.24207 16.1085 9.23632 16.0555 9.26457C16.0238 9.28107 15.975 9.29682 15.947 9.29907C15.919 9.30132 15.8657 9.30907 15.8282 9.31582C15.7282 9.33332 15.6283 9.30482 15.6283 9.25832C15.6283 9.23582 15.6157 9.21982 15.5997 9.22257C15.5847 9.22532 15.5773 9.20282 15.5848 9.17182C15.592 9.14107 15.5885 9.11732 15.577 9.11932C15.5655 9.12132 15.5627 9.09782 15.57 9.06732C15.5805 9.02407 15.5708 9.01357 15.5275 9.02132C15.4968 9.02682 15.4792 9.04157 15.488 9.05507C15.4967 9.06832 15.486 9.08957 15.464 9.10257C15.4167 9.12982 15.4108 9.19357 15.4548 9.20107C15.4963 9.20807 15.425 9.37457 15.3772 9.38257C15.3357 9.38957 15.2703 9.31307 15.2703 9.25607C15.27 9.23332 15.2475 9.18807 15.22 9.15607C15.1925 9.12432 15.1698 9.07182 15.1698 9.03932C15.1693 9.00016 15.1307 8.95982 15.054 8.91832C14.9907 8.88407 14.939 8.83907 14.939 8.81832C14.939 8.79657 14.9242 8.78907 14.9035 8.80107C14.8822 8.81357 14.8627 8.80282 14.856 8.77532C14.851 8.75357 14.848 8.74332 14.844 8.74357ZM14.6145 9.00232C14.6708 8.98057 14.6745 9.29482 14.6185 9.32732C14.5972 9.33982 14.5743 9.33482 14.5673 9.31682C14.5403 9.24807 14.575 9.01757 14.6145 9.00232ZM21.0305 9.11657C21.0398 9.11407 21.045 9.12257 21.052 9.14057C21.0698 9.18607 21.0185 9.37857 20.987 9.38407C20.9755 9.38607 20.9595 9.37032 20.951 9.34857C20.9233 9.27757 20.9348 9.21557 20.986 9.15757C21.0085 9.13207 21.0215 9.11882 21.0305 9.11657ZM14.2917 9.28157C14.3005 9.28057 14.3077 9.28182 14.3112 9.28732C14.33 9.31607 14.2918 9.36857 14.2565 9.36232C14.239 9.35882 14.2247 9.34632 14.2247 9.33432C14.2247 9.31182 14.2652 9.28482 14.2917 9.28157ZM20.988 9.55207C20.9957 9.55141 21.0057 9.55207 21.0182 9.55407C21.0872 9.56407 21.0787 9.55657 21.0987 9.62157C21.1038 9.63782 21.1043 9.65512 21.1003 9.67165C21.0964 9.68818 21.0881 9.70335 21.0763 9.71557C21.0188 9.77607 21.0288 9.79857 21.114 9.80307C21.1725 9.80607 21.1903 9.82157 21.1903 9.87007C21.1903 9.93007 21.187 9.93207 21.1213 9.90807C21.0835 9.89432 21.0465 9.89107 21.0387 9.90132C21.0312 9.91132 21.0392 9.92257 21.057 9.92632C21.0727 9.92865 21.0876 9.93425 21.101 9.94276C21.1143 9.95127 21.1257 9.96249 21.1344 9.97571C21.1431 9.98892 21.1489 10.0038 21.1515 10.0194C21.1541 10.035 21.1533 10.051 21.1493 10.0663C21.1318 10.1428 21.1673 10.1481 21.2243 10.0781C21.2848 10.0041 21.3355 10.0881 21.322 10.2381C21.3175 10.2891 21.275 10.3178 21.2095 10.3143C21.185 10.3131 21.1653 10.2928 21.1653 10.2703C21.1653 10.2398 21.1485 10.2368 21.1012 10.2578C21.0537 10.2786 21.0373 10.2748 21.0373 10.2441C21.0373 10.2211 21.0548 10.1931 21.0755 10.1811C21.109 10.1616 21.109 10.1528 21.0755 10.1086C21.0543 10.08 21.0411 10.0464 21.0373 10.0111C21.0373 9.98482 21.0272 9.96532 21.0145 9.96757C20.9795 9.97382 20.9037 9.73557 20.9352 9.71907C20.9495 9.71157 20.9613 9.66982 20.9613 9.62582C20.9613 9.57307 20.9648 9.55482 20.988 9.55207ZM16.8905 9.58432C16.8822 9.58392 16.874 9.5861 16.867 9.59057C16.8585 9.59632 16.8528 9.60632 16.8528 9.62057C16.8528 9.64057 16.8755 9.67932 16.9035 9.70582C16.9315 9.73232 16.9548 9.76582 16.9548 9.78082C16.9548 9.79582 16.9722 9.79757 16.9935 9.78557C17.0212 9.76932 17.0315 9.78232 17.0315 9.83332C17.0315 9.93032 17.128 9.90982 17.22 9.79282L17.2903 9.70282L17.2202 9.72932C17.1352 9.76182 17.001 9.71432 16.967 9.63932C16.9603 9.62414 16.9497 9.61103 16.9363 9.60135C16.9228 9.59168 16.907 9.5858 16.8905 9.58432ZM16.057 9.86807C16.0549 9.86806 16.0528 9.8685 16.0508 9.86937C16.0489 9.87023 16.0472 9.87149 16.0457 9.87307C16.029 9.89332 16.089 10.0206 16.2083 10.2191C16.2258 10.2478 16.2397 10.2981 16.24 10.3303C16.24 10.3628 16.252 10.3941 16.2663 10.4008C16.2805 10.4076 16.3085 10.4503 16.328 10.4958C16.3475 10.5416 16.3862 10.5823 16.4142 10.5868C16.4425 10.5911 16.4717 10.6111 16.4797 10.6311C16.505 10.6991 16.5255 10.6628 16.5075 10.5786C16.485 10.4723 16.3775 10.2963 16.3288 10.2856C16.3085 10.2808 16.2917 10.2471 16.2917 10.2098C16.2899 10.1683 16.2725 10.129 16.243 10.0998C16.2154 10.0753 16.1935 10.045 16.179 10.0111C16.157 9.94607 16.088 9.86857 16.057 9.86807ZM20.9207 10.0116C20.96 10.0046 20.9283 10.1043 20.8703 10.1713C20.7928 10.2606 20.7433 10.2783 20.781 10.2036C20.8173 10.1318 20.9025 10.0148 20.9207 10.0116ZM13.3057 10.2733C13.3197 10.2708 13.3317 10.2803 13.3317 10.2943C13.3317 10.3081 13.32 10.3286 13.306 10.3401C13.2917 10.3518 13.2805 10.3426 13.2805 10.3196C13.2805 10.2968 13.2917 10.2758 13.3057 10.2733ZM20.7588 10.2801L20.8447 10.3373L20.9317 10.3943L20.876 10.4543C20.8227 10.5121 20.8225 10.5168 20.8638 10.5848C20.8908 10.6291 20.8967 10.6573 20.8787 10.6606C20.8685 10.6623 20.8643 10.6676 20.8643 10.6726C20.8635 10.6736 20.815 10.7296 20.811 10.7333C20.8012 10.7627 20.7942 10.7929 20.79 10.8236C20.7855 10.8318 20.781 10.8376 20.7768 10.8461C20.7143 10.9753 20.7148 10.9748 20.5268 10.9818C20.4918 10.9831 20.443 10.9856 20.4185 10.9876C20.4126 10.9881 20.4067 10.9874 20.4012 10.9855C20.3956 10.9836 20.3905 10.9805 20.3862 10.9765C20.3819 10.9725 20.3785 10.9676 20.3763 10.9622C20.374 10.9568 20.3729 10.9509 20.373 10.9451C20.3532 10.8783 20.3267 10.8201 20.313 10.7318C20.315 10.7278 20.3158 10.7253 20.3183 10.7211C20.3353 10.6788 20.3617 10.6528 20.3822 10.6576C20.4015 10.6618 20.4318 10.6443 20.4498 10.6186C20.4678 10.5928 20.4978 10.5681 20.5165 10.5648C20.5355 10.5613 20.5635 10.5323 20.5785 10.5003C20.5935 10.4683 20.621 10.4393 20.6402 10.4358C20.659 10.4326 20.6935 10.3958 20.7167 10.3548L20.7588 10.2801ZM13.1967 10.3036C13.2067 10.3044 13.2177 10.3077 13.2295 10.3133C13.2597 10.3281 13.261 10.3396 13.2358 10.3703C13.2128 10.3988 13.204 10.4011 13.204 10.3783C13.204 10.3603 13.1865 10.3576 13.1625 10.3713C13.1345 10.3877 13.1245 10.383 13.1325 10.3573C13.1402 10.3322 13.1525 10.3157 13.1695 10.3078C13.1781 10.3038 13.1874 10.3024 13.1967 10.3036ZM21.011 10.3161C21.026 10.3136 21.0378 10.3236 21.0378 10.3383C21.0378 10.3531 21.0328 10.3658 21.0265 10.3671C21.0205 10.3681 21.0085 10.3583 20.9998 10.3451C20.9913 10.3318 20.9962 10.3186 21.011 10.3161ZM21.3865 10.4738C21.404 10.4688 21.424 10.4838 21.4412 10.5201L21.4705 10.5826C21.453 10.6066 21.4342 10.6268 21.4205 10.6501C21.418 10.6478 21.3545 10.6576 21.3355 10.5821C21.3423 10.5711 21.3469 10.5588 21.349 10.5461C21.3548 10.5033 21.369 10.4788 21.3865 10.4738ZM22.6712 10.5011C22.685 10.4986 22.6965 10.5091 22.6965 10.5236C22.6965 10.5309 22.6939 10.538 22.6894 10.5437C22.6848 10.5494 22.6784 10.5534 22.6712 10.5551C22.657 10.5576 22.6458 10.5476 22.6458 10.5331C22.6458 10.5183 22.6572 10.5036 22.6712 10.5011ZM22.4813 10.5088C22.503 10.5051 22.5143 10.5151 22.5055 10.5313C22.497 10.5476 22.4787 10.5631 22.4655 10.5656C22.4522 10.5681 22.4417 10.5573 22.4417 10.5426C22.4417 10.5278 22.4593 10.5126 22.4813 10.5088ZM21.2453 10.5318C21.2605 10.5356 21.261 10.5561 21.239 10.5881C21.2325 10.5971 21.2308 10.6038 21.2283 10.6091L21.157 10.6343C21.097 10.6578 21.024 10.6698 20.987 10.7198C20.987 10.7333 21.0098 10.7336 21.0378 10.7208C21.046 10.7171 21.0465 10.7148 21.0535 10.7108L21.0785 10.7033L21.158 10.7008L21.1535 10.7076C21.1452 10.7146 21.1348 10.7203 21.1278 10.7281C21.0903 10.7688 21.0727 10.8081 21.0847 10.8228C21.096 10.8368 21.1038 10.8721 21.1038 10.9013C21.1018 10.9701 21.0205 11.0023 21.0047 10.9411C20.9972 10.9116 20.9925 10.9223 20.99 10.9708C20.9877 11.0278 20.9762 11.0468 20.9425 11.0458C20.918 11.0453 20.8975 11.0208 20.8975 10.9918C20.8978 10.9639 20.8913 10.9363 20.8787 10.9113C20.8682 10.8961 20.8708 10.8491 20.885 10.8076C20.896 10.7753 20.897 10.7651 20.9 10.7506C20.907 10.7301 20.9375 10.6431 20.9375 10.6381L20.9342 10.6398C20.9491 10.6212 20.9685 10.6066 20.9905 10.5976C21.0126 10.5885 21.0366 10.5853 21.0602 10.5881C21.1027 10.5901 21.1593 10.5753 21.1863 10.5553C21.1981 10.5463 21.2113 10.539 21.2253 10.5338C21.2316 10.5313 21.2385 10.5307 21.2453 10.5318ZM19.5877 10.6101H19.5888C19.6325 10.6101 19.6967 10.6308 19.7612 10.6701C19.8537 10.7266 19.922 10.7618 19.9813 10.7851C20.0298 10.8506 20.0363 10.9006 20.1103 10.8941C20.1495 10.8713 20.221 10.9153 20.221 10.9631C20.221 10.9783 20.238 10.9811 20.259 10.9688C20.2803 10.9566 20.2973 10.9606 20.2973 10.9788C20.2973 10.9998 20.2755 11.0096 20.2337 11.0058C20.1765 11.0011 20.1698 11.0091 20.1698 11.0788C20.1698 11.1663 20.2233 11.1828 20.4235 11.1568C20.486 11.1488 20.541 11.1551 20.5467 11.1711C20.552 11.1868 20.5782 11.1958 20.6052 11.1911C20.6362 11.1856 20.6545 11.2011 20.6545 11.2336C20.6545 11.2778 20.6407 11.2848 20.5462 11.2891C20.4865 11.2918 20.4178 11.2873 20.3943 11.2791C20.3583 11.2698 20.3207 11.2686 20.2843 11.2756C20.2431 11.2817 20.2012 11.2785 20.1615 11.2661C20.081 11.2356 19.852 11.0421 19.8123 10.9711L19.7785 10.9108L19.745 10.8541V10.8521C19.7445 10.8508 19.7405 10.8496 19.7405 10.8483V10.8468C19.7282 10.8286 19.6947 10.8071 19.657 10.7973C19.5787 10.7773 19.5325 10.7221 19.5325 10.6486C19.5325 10.6336 19.54 10.6231 19.5525 10.6168C19.5634 10.6117 19.5754 10.6093 19.5875 10.6098M21.5435 10.7513C21.5632 10.757 21.5732 10.7688 21.5735 10.7868C21.5735 10.8156 21.304 10.8818 21.2785 10.8593C21.2485 10.8333 21.278 10.8078 21.378 10.7743C21.408 10.7643 21.435 10.7572 21.459 10.7528C21.4867 10.7463 21.5155 10.7458 21.5435 10.7513ZM21.3258 11.0736H21.3263C21.3513 11.0711 21.3687 11.0836 21.3687 11.1141C21.3682 11.1331 21.3242 11.1776 21.271 11.2128C21.1527 11.2908 21.1397 11.2941 21.1397 11.2428C21.1397 11.2208 21.1495 11.2011 21.1607 11.1991C21.172 11.1971 21.2073 11.1656 21.2388 11.1291C21.268 11.0956 21.3003 11.0766 21.3258 11.0736ZM21.0912 11.1516C21.1775 11.1511 21.1217 11.1926 20.9375 11.2333C20.7945 11.2648 20.7548 11.2658 20.7633 11.2376C20.7708 11.2123 20.8308 11.1908 20.9575 11.1676C21.018 11.1571 21.0626 11.1517 21.0912 11.1516ZM15.9755 11.5891C15.9373 11.5961 15.903 11.6673 15.9277 11.6888C15.9457 11.7046 16.0112 11.6401 16.0112 11.6068C16.0112 11.5938 15.995 11.5856 15.9755 11.5891ZM16.8668 12.1276C16.888 12.1261 16.9132 12.1388 16.9287 12.1666C16.9612 12.2248 16.963 12.3276 16.9322 12.4141C16.9192 12.4503 16.8823 12.5853 16.85 12.7141C16.8028 12.9026 16.7793 12.9541 16.731 12.9821C16.6425 13.0331 16.6027 13.0346 16.5772 12.9871C16.5272 12.8938 16.521 12.8013 16.559 12.7173C16.5798 12.6706 16.5905 12.6148 16.582 12.5933C16.5515 12.5158 16.597 12.4158 16.688 12.3601C16.7367 12.3298 16.7768 12.2866 16.7768 12.2638C16.7768 12.2411 16.7878 12.2203 16.8018 12.2178C16.8158 12.2153 16.8277 12.1951 16.8277 12.1728C16.8277 12.1441 16.8453 12.1291 16.8668 12.1276ZM16.565 12.1408C16.57 12.1445 16.5725 12.1521 16.5725 12.1636C16.5725 12.2106 16.557 12.2203 16.535 12.1871C16.5272 12.1748 16.5322 12.1551 16.5465 12.1431C16.5538 12.1376 16.56 12.137 16.565 12.1408ZM16.6275 12.1736H16.628C16.6377 12.1748 16.6468 12.1789 16.6542 12.1853C16.6927 12.2188 16.6713 12.2453 16.6235 12.2228C16.6028 12.2136 16.595 12.1953 16.6055 12.1826C16.6105 12.1758 16.6188 12.1733 16.6275 12.1736ZM17.2358 12.5951C17.239 12.5944 17.2423 12.5944 17.2455 12.5952C17.2487 12.596 17.2516 12.5976 17.2542 12.5997C17.2567 12.6018 17.2587 12.6045 17.26 12.6075C17.2613 12.6105 17.2619 12.6138 17.2617 12.6171C17.2616 12.6245 17.259 12.6316 17.2542 12.6373C17.2495 12.6429 17.243 12.6468 17.2358 12.6483C17.2218 12.6508 17.2105 12.6408 17.2105 12.6263C17.2106 12.619 17.2131 12.612 17.2177 12.6063C17.2223 12.6007 17.2286 12.5967 17.2358 12.5951ZM21.9067 12.6708C21.8994 12.6724 21.8928 12.6763 21.8879 12.6821C21.8831 12.6879 21.8803 12.6951 21.88 12.7026C21.88 12.7171 21.885 12.7286 21.891 12.7276C21.8973 12.7263 21.9098 12.7113 21.9185 12.6951C21.927 12.6788 21.9215 12.6681 21.9067 12.6708ZM22.5185 13.0311C22.5665 13.0273 22.5688 13.0436 22.5688 13.1038C22.5688 13.1863 22.5043 13.2863 22.4443 13.2971C22.4273 13.3003 22.3962 13.2641 22.376 13.2166C22.3177 13.0808 22.3255 13.0626 22.4535 13.0403C22.475 13.0363 22.4967 13.0332 22.5185 13.0311ZM13.125 19.1928V19.7763C13.4218 19.63 13.7307 19.5095 14.0483 19.4163C15.1518 19.0913 16.5365 18.9188 17.915 18.8183C19.5239 18.7035 21.1376 18.6686 22.75 18.7138V18.0638C19.6788 17.9946 15.683 18.1051 13.125 19.1928ZM3.32325 2.45757C2.68 2.45457 2.532 2.46207 2.25 2.46782V18.7138C3.8624 18.6686 5.47605 18.7035 7.085 18.8183C8.4635 18.9188 9.84825 19.0913 10.9517 19.4161C11.2693 19.5094 11.5782 19.6299 11.875 19.7763V3.85607C11.8745 3.80457 11.865 3.74482 11.6608 3.59832C11.4563 3.45157 11.086 3.28582 10.6152 3.14832C9.6735 2.87432 8.34075 2.69582 7.00525 2.59382C5.66975 2.49182 4.3295 2.46207 3.32325 2.45757ZM9.311 3.12657C9.45475 3.12332 9.62075 3.12682 9.812 3.13882C10.2723 3.16732 10.596 3.32807 10.8562 3.40132C11.4615 3.57132 11.6263 3.70457 11.668 3.73457C11.7405 3.78632 11.7552 3.84632 11.7005 3.86482C11.682 3.87132 11.6948 3.87907 11.7285 3.88232C11.78 3.88732 11.7895 3.90407 11.7895 3.98407C11.7895 4.05032 11.7775 4.07807 11.749 4.07632C11.7207 4.07457 11.7075 4.10257 11.7075 4.16707C11.7075 4.21807 11.6925 4.26507 11.6737 4.27157C11.6467 4.28082 11.6467 4.28357 11.6737 4.28707C11.7237 4.29332 11.7175 4.47307 11.667 4.48932C11.6095 4.50782 11.6165 4.54857 11.6807 4.56932C11.7372 4.58782 11.7547 4.66007 11.7085 4.68557C11.6937 4.69382 11.6582 4.68607 11.629 4.66857C11.5915 4.64607 11.5698 4.64507 11.5573 4.66457C11.5473 4.68007 11.5647 4.70082 11.5962 4.71107C11.633 4.72307 11.6532 4.75157 11.6532 4.79157C11.6532 4.87282 11.5322 4.90082 11.4642 4.83507C11.4217 4.79382 11.4128 4.79432 11.3678 4.84132C11.319 4.89232 11.3195 4.89332 11.3975 4.88282C11.5068 4.86832 11.5823 4.93082 11.5518 5.01132L11.5288 5.07182L11.4522 4.99682C11.3312 4.87682 11.3345 4.93482 11.456 5.06407C11.5163 5.12807 11.563 5.18007 11.5595 5.17982C11.5562 5.17957 11.562 5.23657 11.5723 5.30632L11.5913 5.43257L11.4862 5.41207C11.427 5.40057 11.388 5.40257 11.3962 5.41707C11.4047 5.43107 11.442 5.44457 11.4788 5.44707C11.515 5.44907 11.5442 5.46632 11.5435 5.48482C11.541 5.54982 11.2865 5.72482 11.1368 5.76432C10.922 5.82082 10.9103 5.82757 10.859 5.93132C10.801 6.04832 10.6965 6.12557 10.5763 6.14057C10.5238 6.14732 10.4838 6.16907 10.4838 6.19057C10.4838 6.21132 10.4745 6.22782 10.4635 6.22707C10.4525 6.22632 10.44 6.27032 10.436 6.32457C10.432 6.37932 10.417 6.43782 10.4023 6.45457C10.3878 6.47132 10.3838 6.49357 10.3935 6.50407C10.4035 6.51457 10.391 6.52157 10.3667 6.52007C10.3385 6.51832 10.328 6.53257 10.338 6.55857C10.3465 6.58157 10.339 6.66057 10.3208 6.73432C10.291 6.85632 10.2807 6.86807 10.2107 6.86382C10.157 6.86057 10.1288 6.84232 10.1163 6.80232C10.1038 6.76307 10.0792 6.74607 10.037 6.74907C10.0186 6.74948 10.0003 6.74619 9.98325 6.73941C9.96616 6.73262 9.9506 6.72248 9.9375 6.70957C9.883 6.64757 9.753 6.37457 9.7315 6.27632C9.71943 6.22507 9.70007 6.17582 9.674 6.13007C9.57975 5.97882 9.614 5.62332 9.7245 5.60107C9.75275 5.59557 9.77425 5.55607 9.78125 5.49607C9.79075 5.41507 9.7835 5.39857 9.73375 5.38582C9.68875 5.37432 9.678 5.38207 9.688 5.42057C9.7065 5.49282 9.5765 5.51257 9.51475 5.44682C9.471 5.40057 9.47125 5.39232 9.51975 5.30582C9.567 5.22082 9.57825 5.21557 9.672 5.23407L9.7735 5.25357L9.7075 5.18857C9.67125 5.15257 9.64725 5.11557 9.65425 5.10607C9.6615 5.09657 9.65325 5.10032 9.63525 5.11432C9.59 5.14982 9.50525 5.14082 9.5015 5.09957C9.495 5.03032 9.51075 4.95607 9.5385 4.92382C9.5585 4.90057 9.5585 4.87207 9.5385 4.82882C9.5015 4.74882 9.4235 4.48882 9.4235 4.44532C9.4235 4.42682 9.40425 4.39007 9.38125 4.36332C9.35528 4.33092 9.33699 4.29306 9.32775 4.25257C9.3135 4.17757 9.327 4.19082 9.183 4.10932L9.066 4.04257L8.97325 4.09182C8.8965 4.13232 8.86575 4.13457 8.79725 4.10657C8.711 4.07107 8.647 3.98307 8.67525 3.93907C8.68425 3.92482 8.66025 3.89982 8.622 3.88282C8.5345 3.84432 8.5335 3.78657 8.61825 3.72532L8.6835 3.67832L8.59275 3.62332C8.3925 3.50282 8.3045 3.14932 9.311 3.12657ZM6.0435 3.34782C6.1445 3.35257 6.2135 3.36132 6.19675 3.36732C6.18025 3.37307 6.17275 3.40782 6.17975 3.44482C6.18975 3.49832 6.1775 3.51682 6.11975 3.53532C6.02675 3.56482 6.032 3.56607 5.99025 3.50532C5.96856 3.47526 5.94014 3.45069 5.90725 3.43357C5.881 3.42232 5.85975 3.39607 5.85975 3.37607C5.85975 3.34907 5.90875 3.34107 6.0435 3.34782ZM6.7505 3.38832C6.86325 3.38982 6.9005 3.42332 6.832 3.46257C6.776 3.49432 6.652 3.48357 6.6205 3.44382C6.58325 3.39657 6.608 3.38632 6.7505 3.38832ZM7.0015 3.40057C7.0925 3.40607 7.1135 3.41582 7.101 3.44732C7.09083 3.47366 7.10192 3.48782 7.13425 3.48982C7.19775 3.49382 7.21925 3.51857 7.20125 3.56482C7.18125 3.61582 7.08175 3.60382 7.01575 3.54232C6.98287 3.51128 6.95213 3.47803 6.92375 3.44282C6.8895 3.39757 6.89625 3.39382 7.00125 3.40032M6.4075 3.43207C6.431 3.41007 6.5125 3.50357 6.51875 3.56032C6.53075 3.66357 6.4655 3.64957 6.4305 3.54132C6.4125 3.48607 6.40225 3.43682 6.4075 3.43207ZM5.785 3.44757C5.79625 3.45157 5.808 3.46607 5.8265 3.49357C5.85275 3.53257 5.859 3.56057 5.8415 3.56532C5.82575 3.56957 5.81875 3.60257 5.8255 3.63782C5.83225 3.67357 5.82375 3.71007 5.80725 3.71907C5.79075 3.72807 5.778 3.75632 5.7785 3.78157C5.77925 3.82382 5.7815 3.82357 5.807 3.78157C5.83625 3.73282 5.94125 3.72332 5.94125 3.76932C5.94125 3.78432 5.96 3.79757 5.98325 3.79932C6.00625 3.80057 6.046 3.83957 6.0715 3.88607C6.099 3.93607 6.14 3.97157 6.172 3.97357C6.2135 3.97607 6.21775 3.97032 6.18925 3.95057C6.1685 3.93607 6.1595 3.91232 6.16925 3.89732C6.1739 3.88986 6.17546 3.88088 6.17359 3.87229C6.17173 3.8637 6.16658 3.85618 6.15925 3.85132C6.11625 3.82207 6.126 3.76957 6.18725 3.70782C6.245 3.64932 6.30925 3.66032 6.284 3.72432C6.276 3.74432 6.28225 3.76932 6.2975 3.77957C6.313 3.79007 6.31925 3.81582 6.31125 3.83632C6.30125 3.86182 6.3175 3.87432 6.363 3.87732C6.44175 3.88232 6.488 3.95957 6.4665 4.04907C6.4515 4.11107 6.453 4.11207 6.492 4.06407C6.532 4.01532 6.533 4.01532 6.56425 4.07557C6.58175 4.10932 6.58925 4.13757 6.58125 4.13907C6.55156 4.14208 6.5218 4.14434 6.492 4.14582C6.288 4.15782 6.193 4.17757 6.127 4.22007C6.036 4.27882 5.9545 4.27407 5.909 4.20782C5.8895 4.17932 5.8335 4.13032 5.785 4.09882C5.71775 4.05557 5.7 4.02882 5.71175 3.98757C5.72192 3.95091 5.71883 3.94391 5.7025 3.96657C5.67825 3.99957 5.5875 3.97807 5.5875 3.93907C5.5875 3.90657 5.684 3.83532 5.72425 3.83782C5.75275 3.83957 5.75425 3.83182 5.72975 3.80607C5.7055 3.78007 5.684 3.78907 5.6395 3.84307C5.5995 3.89132 5.567 3.90657 5.537 3.89182C5.50868 3.87869 5.47816 3.87097 5.447 3.86907C5.373 3.86732 5.367 3.79382 5.43575 3.72407C5.48206 3.67486 5.52499 3.62258 5.56425 3.56757C5.60175 3.51407 5.64525 3.48157 5.66975 3.48907C5.6925 3.49607 5.72725 3.48557 5.74725 3.46557C5.76275 3.45007 5.77375 3.44382 5.785 3.44757ZM7.77775 3.45982C7.85025 3.45657 7.931 3.45732 8.00575 3.46082H8.00625C8.15625 3.46782 8.28225 3.48707 8.2735 3.51307C8.26725 3.53132 8.23475 3.54882 8.201 3.55157C8.16083 3.55524 8.14558 3.57041 8.15525 3.59707C8.1635 3.61907 8.149 3.65832 8.123 3.68382C8.065 3.74107 8.0515 3.79432 8.09625 3.78782C8.1145 3.78532 8.13375 3.80932 8.13875 3.84157C8.145 3.88407 8.12125 3.91457 8.05425 3.95207C7.9475 4.01132 7.89475 4.01582 7.915 3.96407C7.925 3.93832 7.9025 3.92757 7.8325 3.92507C7.7795 3.92307 7.73625 3.93132 7.73625 3.94307C7.73625 3.95507 7.67625 3.95282 7.602 3.93807C7.4995 3.91832 7.457 3.92157 7.42575 3.95107C7.38875 3.98582 7.3945 3.99532 7.48 4.04132C7.56925 4.08907 7.58475 4.08982 7.712 4.05557C7.823 4.02557 7.8625 4.02557 7.92625 4.05607C8.01725 4.09932 8.04975 4.16357 8.00575 4.21357C7.98875 4.23307 7.98125 4.27357 7.98875 4.30307C7.99625 4.33257 7.98725 4.36107 7.96875 4.36707C7.92475 4.38132 7.41175 4.34807 7.34225 4.32657H7.34175C7.24775 4.29732 7.21975 4.25407 7.21925 4.13807C7.21875 3.95432 7.1955 3.90007 7.1245 3.91332C7.0775 3.92232 7.049 3.90532 7.00475 3.84082C6.9185 3.71407 6.92925 3.66757 7.04225 3.67457C7.10725 3.67857 7.148 3.69832 7.171 3.73607C7.19317 3.77324 7.22317 3.78807 7.261 3.78057C7.27851 3.77761 7.29649 3.77935 7.3131 3.78564C7.32971 3.79192 7.34434 3.80251 7.3555 3.81632C7.388 3.85757 7.3955 3.85457 7.42675 3.78207C7.446 3.73757 7.47975 3.70207 7.50175 3.70357C7.5375 3.70557 7.5375 3.69607 7.5035 3.62832C7.482 3.58582 7.4645 3.54332 7.46425 3.53407C7.46425 3.52457 7.52475 3.50082 7.59875 3.48132C7.65757 3.46835 7.71753 3.46115 7.77775 3.45982ZM5.9115 3.63907C5.94025 3.64032 5.96825 3.66282 5.96825 3.69132C5.96825 3.72282 5.93875 3.72157 5.89025 3.68782C5.8645 3.66982 5.86275 3.65707 5.88375 3.64532C5.8922 3.6406 5.90184 3.63843 5.9115 3.63907ZM8.83925 3.65082C8.816 3.64932 8.79675 3.66007 8.79675 3.67507C8.79675 3.69007 8.80875 3.70307 8.82275 3.70382C8.83675 3.70457 8.85525 3.69382 8.86475 3.67957C8.874 3.66507 8.86275 3.65207 8.83925 3.65082ZM6.86375 3.74632C6.8725 3.74732 6.8845 3.75582 6.90275 3.77232C6.939 3.80432 6.94825 3.85357 6.94425 3.99932L6.93925 4.18532L6.83175 4.17857C6.7285 4.17207 6.72425 4.16807 6.73475 4.09557C6.74475 4.02732 6.739 4.02057 6.67925 4.02807C6.6185 4.03607 6.61425 4.03032 6.63125 3.96357C6.64375 3.91524 6.6405 3.89624 6.6215 3.90657C6.5685 3.93607 6.4985 3.88757 6.4945 3.81807C6.49 3.73957 6.541 3.73057 6.6055 3.79907C6.629 3.82407 6.6485 3.83457 6.6485 3.82207C6.6485 3.77482 6.75975 3.73432 6.79725 3.76782C6.824 3.79157 6.8365 3.79082 6.84525 3.76532C6.85 3.75157 6.85525 3.74532 6.86375 3.74632ZM7.065 4.03007C7.1675 4.03657 7.24 4.26157 7.149 4.29082C7.09225 4.30907 7.1015 4.31332 7.02925 4.23182C6.9745 4.17007 6.96975 4.15057 6.99675 4.09357C7.01375 4.05707 7.0445 4.02882 7.065 4.03007ZM5.38675 4.18207C5.43375 4.17757 5.46675 4.17807 5.49325 4.18382C5.51824 4.18912 5.54102 4.20194 5.5585 4.22057C5.58675 4.24757 5.635 4.26757 5.666 4.26457C5.70475 4.26082 5.7575 4.29907 5.832 4.38507C5.892 4.45432 5.9405 4.52207 5.9405 4.53607C5.9405 4.55007 5.95275 4.55532 5.96725 4.54707C5.98175 4.53907 6.02475 4.55432 6.0625 4.58132C6.127 4.62757 6.13125 4.62782 6.13125 4.58382C6.13125 4.53982 6.13575 4.53982 6.19925 4.58532C6.2655 4.63282 6.267 4.63282 6.267 4.56582C6.267 4.52532 6.28275 4.49807 6.30525 4.49932C6.326 4.50057 6.34975 4.48357 6.3585 4.46182C6.3745 4.42057 6.49875 4.41357 6.522 4.45257C6.52925 4.46457 6.521 4.52432 6.5045 4.58507C6.48226 4.65576 6.48269 4.73164 6.50575 4.80207C6.52325 4.86032 6.54475 4.93632 6.55375 4.97057C6.56275 5.00482 6.58425 5.03407 6.602 5.03557C6.65275 5.04007 6.757 5.14407 6.757 5.19032C6.757 5.21332 6.7355 5.24282 6.7095 5.25557C6.6835 5.26832 6.67125 5.28857 6.682 5.30007C6.7165 5.33657 6.645 5.39082 6.56875 5.38607C6.54075 5.37682 6.45875 5.34782 6.45025 5.34707C6.4495 5.34707 6.21925 5.39707 6.17775 5.40407C6.1484 5.39765 6.11853 5.39388 6.0885 5.39282C6.038 5.37407 5.97025 5.41082 5.941 5.32757C5.941 5.31057 5.89925 5.28057 5.84825 5.26057C5.76475 5.22807 5.72308 5.17991 5.72325 5.11607C5.72325 5.10357 5.75725 5.08307 5.79825 5.07057L5.8725 5.04807L5.7875 5.04057C5.70075 5.03282 5.669 4.99357 5.669 4.89307C5.669 4.86432 5.6565 4.84007 5.6415 4.83907C5.60325 4.83657 5.60775 4.74582 5.6485 4.70532C5.6765 4.67757 5.6715 4.67632 5.621 4.69907C5.5875 4.71407 5.56 4.75157 5.56 4.78157C5.56 4.81157 5.539 4.84157 5.5125 4.84932C5.47895 4.86096 5.44753 4.87802 5.4195 4.89982C5.37875 4.93232 5.3695 4.92732 5.332 4.85282C5.309 4.80707 5.26975 4.76032 5.245 4.74932C5.2135 4.73532 5.20575 4.71182 5.21825 4.66982C5.22825 4.63682 5.24075 4.57682 5.247 4.53657C5.25325 4.49632 5.2705 4.44032 5.28575 4.41282C5.30325 4.38157 5.304 4.33082 5.289 4.27782C5.26525 4.19307 5.2665 4.19257 5.3865 4.18207M7.14875 4.37532C7.18375 4.37399 7.2275 4.38274 7.28 4.40157C7.3875 4.44057 7.3975 4.45682 7.35825 4.53107C7.34475 4.55607 7.32025 4.60957 7.304 4.64982C7.28775 4.69007 7.25725 4.72182 7.236 4.72057C7.18525 4.71732 7.156 4.83857 7.191 4.90657C7.2065 4.93607 7.219 4.98082 7.219 5.00557C7.219 5.03032 7.24375 5.08382 7.27375 5.12382C7.31525 5.17932 7.32125 5.20457 7.2975 5.23132C7.274 5.25832 7.27675 5.26682 7.31075 5.26882C7.3375 5.27057 7.35475 5.29432 7.35475 5.32932C7.35475 5.37857 7.36125 5.38282 7.39725 5.35532C7.45825 5.30832 7.52375 5.38607 7.52375 5.50607C7.52375 5.55807 7.53425 5.61832 7.5475 5.64007C7.56125 5.66257 7.57175 5.66657 7.572 5.64932C7.572 5.63232 7.59275 5.57232 7.618 5.51582C7.687 5.36032 7.6485 5.20882 7.538 5.20207C7.446 5.19632 7.3465 4.98157 7.3655 4.83032C7.3945 4.59732 7.476 4.49032 7.6175 4.49932C7.68575 4.50357 7.703 4.51432 7.69125 4.54482C7.67725 4.57982 7.68475 4.58032 7.75325 4.54907C7.8745 4.49382 8.11325 4.54332 8.19125 4.64007C8.22475 4.68157 8.25275 4.72807 8.25325 4.74307C8.255 4.79407 8.402 4.97457 8.43475 4.96557C8.45275 4.96057 8.4895 4.98482 8.51625 5.01932C8.543 5.05382 8.58175 5.09657 8.60175 5.11457C8.7255 5.22557 8.795 5.32332 8.781 5.36657C8.77175 5.39557 8.77975 5.41507 8.8015 5.41682C8.8255 5.41882 8.82158 5.43099 8.78975 5.45332C8.727 5.49732 8.72975 5.54032 8.7965 5.56582C8.8265 5.57707 8.8515 5.59707 8.8515 5.61082C8.8515 5.62407 8.8725 5.62907 8.89875 5.62132C8.92475 5.61382 8.93725 5.61657 8.926 5.62832C8.915 5.63982 8.95475 5.69732 9.0145 5.75607C9.137 5.87682 9.1445 5.91207 9.0685 6.00432C9.03925 6.03982 9.01475 6.08432 9.0145 6.10282C9.01425 6.12132 9.00125 6.13607 8.9855 6.13507C8.9495 6.13282 8.82425 5.99082 8.823 5.95107C8.8225 5.93457 8.81025 5.94032 8.7955 5.96407C8.7635 6.01732 8.78875 6.09532 8.839 6.09857C8.9275 6.10407 8.994 6.42757 8.9115 6.45007C8.893 6.45507 8.87825 6.44582 8.87825 6.42957C8.87825 6.41332 8.8675 6.39957 8.85475 6.39882C8.842 6.39807 8.8375 6.43007 8.84475 6.46957C8.85925 6.54582 8.867 6.54457 8.69475 6.48407C8.661 6.47232 8.633 6.45307 8.633 6.44082C8.633 6.42832 8.603 6.40882 8.56625 6.39732C8.52442 6.38173 8.48921 6.35225 8.4665 6.31382C8.39675 6.17882 8.3205 6.13532 8.2225 6.17407C8.14875 6.20332 8.0785 6.12582 8.10025 6.03982C8.1165 5.97582 8.12975 5.96882 8.194 5.98557C8.28025 6.00807 8.35 5.97982 8.3225 5.93332C8.31225 5.91582 8.32875 5.87107 8.3595 5.83382C8.3905 5.79632 8.41575 5.73882 8.41575 5.70632C8.41575 5.62482 8.2755 5.48532 8.2135 5.50507C8.17525 5.51757 8.16775 5.50757 8.1745 5.45532C8.184 5.38432 8.10525 5.24407 8.07875 5.28507C8.06975 5.29907 8.0185 5.30782 7.965 5.30457C7.8485 5.29707 7.8155 5.32057 7.875 5.36807C7.90825 5.39432 7.918 5.44507 7.91575 5.57107C7.91175 5.77457 7.827 5.89757 7.70925 5.87132C7.64575 5.85732 7.649 5.86457 7.74875 5.96032C7.8085 6.01782 7.86675 6.06532 7.87825 6.06632C7.8895 6.06682 7.89875 6.08307 7.89875 6.10182C7.89875 6.12082 7.92375 6.15307 7.95425 6.17432C7.98475 6.19507 8.00225 6.22332 7.9935 6.23707C7.9715 6.27132 7.85175 6.26182 7.82925 6.22382C7.81775 6.20432 7.7905 6.21257 7.75175 6.24632C7.69925 6.29232 7.68275 6.29407 7.619 6.26057C7.54725 6.22282 7.527 6.18032 7.564 6.14532C7.5745 6.13557 7.58625 6.10082 7.5905 6.06782L7.59875 6.00782L7.56375 6.06807C7.5445 6.10132 7.48925 6.14957 7.44175 6.17557C7.394 6.20157 7.35475 6.23857 7.35475 6.25757C7.35475 6.27657 7.31625 6.32607 7.26925 6.36757C7.11775 6.50107 7.056 6.74007 7.16375 6.77507C7.19775 6.78607 7.2235 6.82432 7.23375 6.87882C7.247 6.95032 7.26275 6.96632 7.32625 6.97257C7.36875 6.97657 7.44375 7.01207 7.49375 7.05107C7.6345 7.16057 7.70775 7.19757 7.79325 7.20282C7.86825 7.20782 7.87175 7.21382 7.87175 7.32882C7.87175 7.41882 7.889 7.47057 7.93925 7.53057C8.02675 7.63532 8.063 7.59007 8.031 7.41682C8.0095 7.30007 8.0135 7.28782 8.0895 7.22157C8.1345 7.18257 8.17075 7.14007 8.17075 7.12732C8.17025 7.05407 8.10975 6.89932 8.0755 6.88407C8.023 6.86057 8.023 6.78207 8.076 6.78557C8.1095 6.78757 8.11575 6.74957 8.11 6.57707C8.1045 6.40032 8.10975 6.36782 8.14375 6.37932C8.16625 6.38682 8.23425 6.39682 8.29525 6.40207C8.37975 6.40957 8.42275 6.43082 8.47725 6.49307C8.5165 6.53782 8.56925 6.57882 8.5945 6.58432C8.62775 6.59132 8.6425 6.62432 8.647 6.70382C8.651 6.77132 8.67475 6.83682 8.70825 6.87232C8.75975 6.92732 8.76525 6.92757 8.803 6.88607C8.825 6.86182 8.851 6.81007 8.861 6.77082C8.87875 6.70132 8.96025 6.67282 8.96025 6.73607C8.96025 6.75357 8.97725 6.78882 8.99825 6.81357C9.0195 6.83857 9.063 6.93857 9.095 7.03607C9.15825 7.22857 9.18875 7.27232 9.2825 7.30782C9.31625 7.32082 9.3575 7.36207 9.37375 7.39932C9.39025 7.43632 9.41875 7.46732 9.43725 7.46857C9.47975 7.47107 9.5035 7.62532 9.4665 7.66007C9.4475 7.67741 9.4495 7.68682 9.4725 7.68832C9.4975 7.68982 9.4985 7.70332 9.47625 7.74332C9.4425 7.80457 9.49425 7.88007 9.573 7.88507C9.60225 7.88682 9.613 7.90257 9.603 7.92807C9.59425 7.94982 9.598 7.96807 9.6105 7.96907C9.6485 7.97157 9.6665 8.08582 9.6375 8.13857C9.61575 8.17757 9.6 8.18107 9.557 8.15507C9.52725 8.13732 9.4915 8.12957 9.47775 8.13707C9.464 8.14457 9.44575 8.13757 9.43625 8.12207C9.427 8.10607 9.377 8.09057 9.325 8.08707C9.24225 8.08207 9.2315 8.07382 9.24 8.02082C9.24525 7.98757 9.2725 7.91582 9.3 7.86157C9.35625 7.75182 9.3395 7.70307 9.26625 7.76457C9.22931 7.79101 9.18724 7.8094 9.14275 7.81857C9.08225 7.83007 9.07325 7.84057 9.0985 7.87232C9.1235 7.90432 9.117 7.91107 9.06525 7.90707C9.02269 7.90141 8.98231 7.88488 8.948 7.85907C8.88775 7.80982 8.7965 7.79632 8.7965 7.83657C8.7965 7.85157 8.83475 7.86657 8.8815 7.86957C8.962 7.87457 8.96575 7.87907 8.95 7.95732C8.9315 8.04832 8.964 8.09982 9.06 8.13057C9.097 8.14282 9.125 8.13632 9.134 8.11307C9.155 8.05957 9.198 8.07082 9.218 8.13507C9.239 8.20207 9.19675 8.24557 9.0685 8.28782C9.01625 8.30532 8.9545 8.33432 8.931 8.35282C8.8635 8.40532 8.82425 8.38907 8.822 8.30732C8.82075 8.26632 8.81375 8.24707 8.8065 8.26457C8.799 8.28207 8.7515 8.30707 8.701 8.32057C8.6085 8.34557 8.542 8.44807 8.60275 8.47207C8.6445 8.48857 8.64175 8.53407 8.59925 8.53157C8.5365 8.52782 8.35625 8.57507 8.37125 8.59107C8.3795 8.59982 8.3555 8.66507 8.318 8.73657C8.27975 8.81007 8.25725 8.88907 8.26625 8.91832C8.278 8.95582 8.25425 8.98882 8.1795 9.04032C8.0005 9.16332 7.926 9.23182 7.926 9.27382C7.926 9.29632 7.9465 9.38057 7.9715 9.46132C8.00875 9.58157 8.0105 9.61482 7.9815 9.64782C7.9625 9.66982 7.93825 9.68757 7.928 9.68682C7.90075 9.68507 7.7905 9.47482 7.7905 9.42457C7.7905 9.36632 7.767 9.35407 7.5855 9.32157C7.4455 9.29657 7.42925 9.29882 7.4445 9.33957C7.4635 9.38982 7.39375 9.39257 7.23275 9.34757C7.17425 9.33107 7.127 9.33882 7.06575 9.37432C6.98825 9.41932 6.97775 9.44082 6.96125 9.59932C6.9415 9.78782 6.96575 9.89082 7.05125 9.98132C7.121 10.0556 7.30875 10.0416 7.323 9.96132C7.33058 9.9279 7.34937 9.89808 7.37625 9.87682C7.42175 9.84432 7.59975 9.84307 7.59975 9.87532C7.59975 9.89607 7.55025 10.0536 7.5155 10.1438C7.49375 10.1996 7.49925 10.2041 7.598 10.2103C7.77225 10.2211 7.7905 10.2383 7.7905 10.3978C7.7905 10.5841 7.8635 10.6871 7.967 10.6463C7.98943 10.6369 8.01365 10.6325 8.03795 10.6334C8.06226 10.6343 8.08608 10.6405 8.10775 10.6516C8.17025 10.6793 8.18875 10.6751 8.237 10.6216C8.295 10.5571 8.5245 10.4961 8.5245 10.5448C8.5245 10.5591 8.5485 10.5646 8.578 10.5568C8.60725 10.5493 8.65925 10.5601 8.693 10.5803C8.727 10.6006 8.8255 10.6206 8.91225 10.6253C9.046 10.6323 9.082 10.6456 9.14875 10.7108C9.3375 10.8953 9.4115 10.9488 9.4855 10.9533C9.6185 10.9616 9.73475 11.0426 9.78625 11.1628C9.8125 11.2238 9.82625 11.2851 9.81675 11.2996C9.81625 11.3003 9.83275 11.3021 9.83425 11.3031L9.82925 11.3066L10.007 11.3671L10.0975 11.4276C10.147 11.4608 10.245 11.4993 10.315 11.5131C10.385 11.5268 10.4788 11.5681 10.5238 11.6043C10.5688 11.6406 10.63 11.6761 10.66 11.6833C10.702 11.6936 10.716 11.7213 10.7225 11.8073C10.7295 11.9048 10.715 11.9366 10.6067 12.0613C10.5055 12.1778 10.4832 12.2238 10.4832 12.3128C10.4832 12.4421 10.4422 12.5678 10.3582 12.6971C10.3095 12.7721 10.2745 12.7936 10.1882 12.8021C10.0422 12.8163 9.91175 12.9193 9.91175 13.0208C9.91175 13.0983 9.8275 13.2503 9.72925 13.3483C9.6881 13.3921 9.64962 13.4382 9.614 13.4866C9.56025 13.5606 9.5375 13.5713 9.46275 13.5578C9.37475 13.5421 9.36025 13.5618 9.4055 13.6371C9.461 13.7296 9.3155 13.8531 9.163 13.8436C9.112 13.8403 9.09175 13.8591 9.0735 13.9266C9.05375 13.9991 9.03825 14.0116 8.97775 14.0038C8.93775 13.9983 8.9055 14.0053 8.9055 14.0193C8.9055 14.0333 8.92225 14.0458 8.943 14.0471C9.006 14.0511 9.017 14.1303 8.95875 14.1581C8.92925 14.1718 8.9055 14.2038 8.9055 14.2288C8.9055 14.2538 8.872 14.3003 8.83075 14.3318L8.75575 14.3893L8.819 14.4471C8.89025 14.5121 8.883 14.5776 8.79625 14.6506C8.7665 14.6756 8.7425 14.7088 8.7425 14.7233C8.7425 14.7383 8.72125 14.7641 8.6955 14.7811C8.656 14.8076 8.6545 14.8236 8.68225 14.8866C8.7005 14.9273 8.715 14.9826 8.715 15.0091C8.715 15.0638 8.82325 15.1826 8.87575 15.1858C8.89475 15.1871 8.905 15.2033 8.89875 15.2216C8.88775 15.2541 8.695 15.2563 8.55725 15.2258C8.51558 15.2167 8.49758 15.1972 8.50325 15.1673C8.50825 15.1426 8.4885 15.1083 8.45975 15.0916C8.42997 15.0738 8.40499 15.049 8.387 15.0193C8.34525 14.9343 8.301 14.6661 8.31125 14.5598C8.31875 14.4798 8.31275 14.4536 8.28725 14.4618C8.266 14.4686 8.25275 14.4501 8.25275 14.4128C8.25275 14.3758 8.27325 14.3488 8.307 14.3421C8.337 14.3361 8.3615 14.3096 8.3615 14.2826C8.3615 14.2556 8.369 14.2143 8.37825 14.1913C8.38942 14.163 8.37933 14.148 8.348 14.1463C8.31225 14.1441 8.305 14.1288 8.318 14.0833C8.3275 14.0503 8.3425 13.9441 8.35075 13.8476C8.35925 13.7508 8.3895 13.6156 8.41825 13.5471C8.447 13.4786 8.47 13.3706 8.47 13.3061C8.47 13.2413 8.489 13.0936 8.5115 12.9778C8.534 12.8621 8.552 12.6813 8.552 12.5766C8.552 12.4123 8.54325 12.3786 8.4905 12.3316C8.45675 12.3011 8.41925 12.2756 8.4065 12.2741C8.32975 12.2666 8.2145 12.1248 8.116 11.9166C8.055 11.7883 7.9815 11.6598 7.9525 11.6316C7.89925 11.5803 7.8815 11.4786 7.91975 11.4426C7.931 11.4321 7.94025 11.3851 7.94025 11.3376V11.2518L7.98075 11.1926C7.98075 11.1813 8.0145 11.1381 8.0555 11.0966C8.0965 11.0548 8.12625 10.9953 8.12225 10.9646C8.09875 10.7786 8.08375 10.7301 8.0475 10.7278C8.04232 10.7275 8.03715 10.7283 8.0323 10.7302C8.02744 10.732 8.02302 10.7348 8.01931 10.7384C8.0156 10.742 8.01268 10.7464 8.01073 10.7512C8.00878 10.756 8.00785 10.7611 8.008 10.7663C8.008 10.8121 7.93875 10.8173 7.913 10.7738C7.90664 10.7652 7.89851 10.758 7.88915 10.7528C7.8798 10.7476 7.86943 10.7444 7.85875 10.7436C7.8085 10.7403 7.63 10.6133 7.62725 10.5788C7.6225 10.5183 7.525 10.4338 7.4095 10.3901C7.342 10.3646 7.252 10.3133 7.20925 10.2756C7.14975 10.2233 7.11125 10.2098 7.04525 10.2181C6.98025 10.2263 6.90525 10.2011 6.74275 10.1171C6.48275 9.98232 6.42575 9.93207 6.4455 9.85457C6.45625 9.81257 6.42975 9.76282 6.3435 9.66632C6.16 9.46057 6.0255 9.28082 5.99625 9.20207C5.9815 9.16207 5.95625 9.12857 5.94125 9.12782C5.897 9.12507 5.90875 9.16632 5.97475 9.24732C6.0085 9.28857 6.0665 9.38282 6.10375 9.45682C6.141 9.53082 6.1875 9.60182 6.20625 9.61507C6.21599 9.62261 6.22403 9.63211 6.22985 9.64297C6.23567 9.65383 6.23912 9.66579 6.24 9.67807C6.24 9.69982 6.225 9.71632 6.20625 9.71457C6.156 9.71032 6.01625 9.57182 6.0345 9.54382C6.043 9.53057 6.0105 9.48957 5.96175 9.45282C5.92744 9.42734 5.89352 9.40133 5.86 9.37482C5.853 9.36882 5.865 9.35407 5.8865 9.34232C5.92 9.32332 5.91875 9.31232 5.87725 9.26782C5.8505 9.23932 5.8 9.15957 5.7655 9.09032C5.72975 9.01857 5.669 8.94482 5.62475 8.92032C5.53075 8.86782 5.50775 8.83732 5.39525 8.61107C5.3115 8.44307 5.30775 8.42232 5.3045 8.09357C5.3015 7.79007 5.29525 7.74607 5.24925 7.70982C5.0905 7.58382 5.03925 7.51757 5.07175 7.48082C5.09675 7.45182 5.09325 7.42707 5.0555 7.36582C5.02875 7.32332 4.991 7.27782 4.971 7.26457C4.951 7.25132 4.93425 7.21057 4.93425 7.17357C4.93425 7.13682 4.9095 7.08382 4.8795 7.05657C4.8495 7.02932 4.8255 6.99082 4.8255 6.97207C4.8255 6.92507 4.7395 6.82232 4.71275 6.83707C4.70075 6.84382 4.68325 6.81707 4.6735 6.77857C4.66275 6.73457 4.6375 6.70782 4.60525 6.70607C4.577 6.70407 4.49775 6.65607 4.429 6.59932C4.34225 6.52782 4.27575 6.49457 4.21075 6.49057C4.1575 6.48732 4.0705 6.45207 4.009 6.40957C3.9495 6.36807 3.9005 6.34582 3.9005 6.35957C3.9005 6.37357 3.916 6.39132 3.93475 6.39882C3.9615 6.40932 3.96125 6.42082 3.93275 6.45332C3.913 6.47607 3.87975 6.48757 3.859 6.47832C3.83825 6.46907 3.7935 6.47907 3.7595 6.50082C3.65917 6.56499 3.619 6.54857 3.639 6.45157L3.656 6.36707L3.60125 6.43282C3.57125 6.46932 3.55375 6.51757 3.56225 6.54032C3.57075 6.56307 3.565 6.58907 3.549 6.59782C3.54053 6.60298 3.53348 6.61016 3.52846 6.61871C3.52344 6.62726 3.52062 6.63692 3.52025 6.64682C3.52075 6.66457 3.53375 6.65832 3.549 6.63307C3.56425 6.60807 3.59375 6.58832 3.6145 6.58957C3.6825 6.59382 3.645 6.71707 3.5545 6.78732L3.467 6.85582L3.47475 6.76007C3.48325 6.65357 3.4905 6.65132 3.29475 6.81807C3.23325 6.87057 3.173 6.90657 3.161 6.89807C3.1485 6.89007 3.139 6.90307 3.139 6.92707C3.139 6.95132 3.12675 6.96307 3.1125 6.95332C3.09825 6.94357 3.04325 6.95157 2.99 6.97057C2.8745 7.01157 2.85325 7.01257 2.85325 6.97932C2.85325 6.95307 3.04425 6.82607 3.08025 6.82832C3.11725 6.83082 3.26775 6.67832 3.2825 6.62382C3.29425 6.57982 3.28875 6.57482 3.24775 6.59407C3.21175 6.61107 3.1945 6.60582 3.18325 6.57607C3.1725 6.54707 3.14425 6.53857 3.08675 6.54657C3.01225 6.55707 3.0065 6.55257 3.01725 6.49357C3.0275 6.43782 3.0185 6.42857 2.95475 6.42507C2.8965 6.42232 2.8805 6.40857 2.87975 6.36157C2.87925 6.32882 2.84975 6.27457 2.81425 6.24157C2.756 6.18732 2.75275 6.17507 2.785 6.11707C2.8205 6.05257 3.004 5.92632 3.05675 5.92957C3.09175 5.93157 3.0935 5.85907 3.05925 5.83582C3.05588 5.83354 3.05209 5.83196 3.04809 5.83119C3.0441 5.83041 3.03999 5.83046 3.03601 5.83133C3.03204 5.83219 3.02828 5.83386 3.02497 5.83622C3.02166 5.83858 3.01886 5.8416 3.01675 5.84507C3.00725 5.86007 2.98475 5.86207 2.967 5.84932C2.94492 5.83525 2.92028 5.82565 2.8945 5.82107C2.86637 5.81733 2.83828 5.81325 2.81025 5.80882C2.76425 5.80182 2.70375 5.69057 2.70375 5.61257C2.70375 5.56232 2.83275 5.48007 2.905 5.48457C2.929 5.48607 2.9485 5.50582 2.9485 5.52807C2.9485 5.55057 2.9665 5.57032 2.989 5.57157C3.0115 5.57307 3.0305 5.55007 3.0305 5.51982C3.0305 5.48982 3.0185 5.46482 3.00425 5.46357C2.98975 5.46282 2.92325 5.40507 2.85625 5.33582C2.76375 5.24032 2.73775 5.19607 2.74925 5.15257C2.76 5.11207 2.78575 5.09632 2.83775 5.09932C2.89675 5.10307 2.92025 5.08432 2.95825 5.00082C3.00325 4.90132 3.1695 4.77732 3.2365 4.79332C3.25275 4.79707 3.288 4.77757 3.31475 4.74982C3.35775 4.70482 3.3715 4.70382 3.43475 4.73957C3.474 4.76182 3.53975 4.79007 3.58075 4.80257C3.622 4.81507 3.656 4.83732 3.656 4.85182C3.656 4.86657 3.69325 4.88082 3.7385 4.88357C3.78375 4.88632 3.8645 4.90957 3.91825 4.93532C3.972 4.96107 4.06275 4.98532 4.11975 4.98907C4.17675 4.99282 4.23025 5.00657 4.2385 5.02032C4.24675 5.03407 4.295 5.05607 4.3455 5.06857C4.396 5.08107 4.45875 5.11707 4.4855 5.14832C4.5555 5.23007 4.608 5.22382 4.79475 5.11082C4.9115 5.03982 4.97675 5.01632 5.01575 5.03107C5.052 5.04482 5.069 5.04107 5.06425 5.01932C5.06 5.00107 5.072 4.98182 5.091 4.97582C5.111 4.96982 5.1435 5.00982 5.17025 5.07257L5.2155 5.17957L5.2435 5.10682C5.276 5.02157 5.30325 5.01432 5.322 5.08782C5.33175 5.12557 5.35325 5.13782 5.4005 5.13157C5.43825 5.12657 5.5245 5.15657 5.60525 5.20207C5.68175 5.24532 5.77425 5.28207 5.81025 5.28457C5.8448 5.28725 5.87778 5.30013 5.905 5.32157L5.95575 5.40157C5.959 5.40907 5.94425 5.42707 5.91975 5.44407C5.878 5.47332 5.88475 5.47832 5.97625 5.48457C6.0335 5.48882 6.103 5.48082 6.13125 5.46757C6.16525 5.45157 6.18775 5.45307 6.19875 5.47207C6.20825 5.48757 6.23375 5.50132 6.2555 5.50282C6.316 5.46232 6.3905 5.37182 6.5675 5.46782C6.595 5.46932 6.62425 5.48232 6.6325 5.49632C6.641 5.51032 6.68975 5.52357 6.741 5.52532C6.8155 5.52782 6.83625 5.51582 6.846 5.46607C6.8535 5.42607 6.845 5.40307 6.821 5.40157C6.7725 5.39857 6.7735 5.39232 6.843 5.27857L6.9025 5.18207L6.992 5.28507C7.04875 5.35032 7.0885 5.37757 7.10025 5.35932C7.11075 5.34307 7.087 5.30032 7.048 5.26432C6.9915 5.21232 6.978 5.17632 6.97925 5.08232C6.98025 5.01782 6.9985 4.93857 7.02025 4.90657C7.0495 4.86382 7.05525 4.80907 7.04175 4.69907C7.01425 4.47907 7.0435 4.37932 7.14875 4.37532ZM6.757 4.42907C6.7855 4.42641 6.82442 4.42641 6.87375 4.42907L6.97725 4.43407L6.96225 4.52907C6.952 4.59207 6.95975 4.63832 6.98475 4.66482C7.038 4.72157 7.02025 4.86257 6.95225 4.92157C6.873 4.99082 6.8305 4.98082 6.78825 4.88307C6.76825 4.83707 6.73925 4.79857 6.72325 4.79757C6.68325 4.79507 6.6225 4.70582 6.62125 4.64832C6.62025 4.59332 6.676 4.58857 6.72375 4.63957C6.76575 4.68407 6.76575 4.64982 6.72375 4.57107C6.67175 4.47307 6.67075 4.43707 6.757 4.42907ZM8.202 5.54907C8.21524 5.54536 8.22926 5.54536 8.2425 5.54907C8.27875 5.55832 8.29375 5.58607 8.29375 5.64407C8.29375 5.71232 8.28125 5.72557 8.2185 5.72882C8.156 5.73207 8.144 5.72257 8.14425 5.66982C8.14475 5.60282 8.16625 5.55982 8.202 5.54907ZM5.52525 5.68732C5.52109 5.68614 5.51674 5.68579 5.51245 5.6863C5.50816 5.68682 5.50401 5.68819 5.50025 5.69032C5.48225 5.70066 5.48508 5.71449 5.50875 5.73182C5.53225 5.74832 5.53625 5.76482 5.519 5.77682C5.4665 5.81282 5.417 5.88582 5.44425 5.88757C5.4595 5.88857 5.47875 5.87257 5.48675 5.85182C5.49475 5.83107 5.53875 5.80882 5.58425 5.80157C5.68975 5.78507 5.7205 5.74132 5.63075 5.73557C5.59325 5.73332 5.55525 5.71882 5.54575 5.70307C5.54118 5.6954 5.53384 5.68977 5.52525 5.68732ZM8.0995 6.24307C8.1205 6.24432 8.1445 6.26457 8.15325 6.28732C8.169 6.32932 8.115 6.34257 8.08 6.30557C8.0495 6.27307 8.0595 6.24057 8.0995 6.24307ZM7.8535 6.31307C7.8965 6.32507 7.8965 6.33057 7.857 6.38457C7.8155 6.44082 7.73525 6.46132 7.73525 6.41582C7.73525 6.36632 7.81025 6.30132 7.8535 6.31307ZM2.774 6.32032C2.8245 6.32357 2.8415 6.33682 2.835 6.36932C2.82525 6.41857 2.79 6.43257 2.73775 6.40832C2.67525 6.37932 2.70125 6.31582 2.774 6.32032ZM5.9785 6.35032C5.96475 6.34132 5.92375 6.36132 5.88675 6.39457C5.8075 6.46532 5.85175 6.48007 5.94175 6.41257C5.976 6.38732 5.99225 6.35932 5.9785 6.35032ZM8.00475 6.40007C8.04325 6.40257 8.0535 6.41707 8.043 6.45757C8.02675 6.51832 7.9965 6.54257 7.9705 6.51532C7.93175 6.47432 7.95475 6.39682 8.00475 6.40007ZM2.78225 7.00882C2.79492 7.00882 2.80633 7.01216 2.8165 7.01882C2.831 7.02882 2.82075 7.05182 2.7935 7.07082C2.73 7.11507 2.7035 7.11382 2.7035 7.06657C2.7035 7.03407 2.745 7.00832 2.78225 7.00882ZM4.82225 7.12782C4.863 7.13032 4.87975 7.14857 4.88125 7.19232C4.8825 7.22607 4.88875 7.28157 4.895 7.31582C4.90875 7.39032 4.90075 7.39207 4.84475 7.32657C4.81663 7.28863 4.79594 7.24571 4.78375 7.20007C4.76775 7.13507 4.77325 7.12507 4.82225 7.12782ZM6.88675 7.36507C6.86225 7.36407 6.8635 7.37207 6.892 7.39207C6.9145 7.40807 6.92325 7.42107 6.911 7.42057C6.899 7.42007 6.89725 7.43282 6.90725 7.44932C6.93275 7.49232 6.95675 7.46107 6.93725 7.40982C6.9285 7.38607 6.90575 7.36632 6.88675 7.36532M7.52825 7.88032C7.49825 7.87957 7.4695 7.88932 7.43125 7.90957C7.34775 7.95357 7.32575 8.00857 7.40225 7.98182C7.496 7.94907 7.54725 7.94332 7.543 7.96682C7.533 8.01882 7.5475 8.03632 7.58825 8.02332C7.61024 8.01611 7.63313 8.01199 7.65625 8.01107C7.7005 8.01382 7.6825 7.93782 7.63325 7.91357C7.58925 7.89157 7.55825 7.88107 7.52825 7.88032ZM7.78175 8.11957C7.7775 8.12557 7.7885 8.15257 7.813 8.21282C7.83775 8.27307 7.861 8.32282 7.86475 8.32307C7.8685 8.32332 7.8715 8.28957 7.8715 8.24832C7.8715 8.20407 7.8505 8.15907 7.81975 8.13807C7.81075 8.13145 7.80131 8.12544 7.7915 8.12007C7.7865 8.11774 7.78317 8.11757 7.7815 8.11957M7.6325 8.13057C7.62687 8.13064 7.62129 8.13165 7.616 8.13357C7.57275 8.14757 7.546 8.22582 7.5455 8.33907C7.5455 8.38357 7.55675 8.40907 7.5725 8.40032C7.5875 8.39182 7.5925 8.35482 7.58325 8.31782H7.58275C7.57831 8.29502 7.57845 8.27156 7.58317 8.24881C7.5879 8.22606 7.5971 8.20448 7.61025 8.18532C7.636 8.14782 7.643 8.13207 7.6325 8.13057ZM7.92275 8.13657C7.90775 8.13557 7.90275 8.14782 7.912 8.16332C7.92125 8.17882 7.9415 8.19232 7.9565 8.19332C7.9715 8.19432 7.976 8.18232 7.96675 8.16682C7.9575 8.15132 7.93775 8.13757 7.92275 8.13657ZM8.086 9.54532C8.1245 9.54357 8.171 9.57282 8.171 9.61032C8.171 9.63107 8.16475 9.64782 8.15725 9.64732C8.14975 9.64682 8.1435 9.63407 8.1435 9.61907C8.1435 9.60407 8.11675 9.59032 8.084 9.58832C8.04275 9.58582 8.0325 9.57657 8.0515 9.55832C8.06116 9.55015 8.07335 9.54556 8.086 9.54532ZM3.1935 9.55607C3.2085 9.55682 3.22025 9.56982 3.22025 9.58482C3.2203 9.5883 3.21962 9.59175 3.21825 9.59496C3.21689 9.59816 3.21487 9.60104 3.21233 9.60341C3.20979 9.60579 3.20678 9.60761 3.20349 9.60876C3.20021 9.6099 3.19672 9.61035 3.19325 9.61007C3.18599 9.60941 3.17922 9.60613 3.17421 9.60084C3.16919 9.59555 3.16627 9.58861 3.166 9.58132C3.166 9.56632 3.1785 9.55507 3.1935 9.55607ZM3.26275 9.58732C3.311 9.59032 3.49275 9.73332 3.49275 9.76832C3.49275 9.77832 3.4735 9.79232 3.45075 9.79957C3.42308 9.80841 3.40092 9.79066 3.38425 9.74632C3.3705 9.70982 3.33425 9.67007 3.30375 9.65857C3.25425 9.63982 3.2225 9.58482 3.26275 9.58732ZM8.09525 9.65482C8.09927 9.65379 8.10347 9.65368 8.10754 9.6545C8.11161 9.65533 8.11545 9.65706 8.11875 9.65957C8.1515 9.68207 8.15125 9.75582 8.11825 9.75382C8.104 9.75282 8.085 9.73882 8.07575 9.72357C8.059 9.69557 8.073 9.66132 8.09475 9.65507L8.09525 9.65482ZM7.853 9.76732C7.88475 9.76907 7.9255 9.77932 7.9905 9.79907C8.07475 9.82457 8.1435 9.85332 8.1435 9.86257C8.1435 9.87182 8.211 9.91357 8.2935 9.95507C8.41825 10.0176 8.44275 10.0413 8.44275 10.0991C8.44275 10.1581 8.4305 10.1673 8.35875 10.1628C8.31275 10.1601 8.26975 10.1523 8.26375 10.1458C8.238 10.1186 8.25525 10.0886 8.295 10.0911C8.31825 10.0926 8.3295 10.0808 8.32025 10.0653C8.311 10.0498 8.262 10.0348 8.2115 10.0316C8.1525 10.0278 8.1065 10.0066 8.084 9.97257C8.0365 9.90182 7.8735 9.85557 7.8415 9.90357C7.822 9.93232 7.813 9.93207 7.795 9.90257C7.7815 9.88107 7.752 9.87282 7.723 9.88207C7.648 9.90632 7.68475 9.82982 7.7685 9.78782C7.79402 9.7728 7.82343 9.76567 7.853 9.76732ZM8.34775 9.82257C8.37025 9.82407 8.38875 9.83632 8.38875 9.85032C8.38875 9.88457 8.346 9.90682 8.32425 9.88357C8.2935 9.85107 8.3055 9.82007 8.34775 9.82257ZM8.396 9.93207C8.4285 9.93732 8.42225 9.97432 8.38725 9.98382C8.36925 9.98857 8.35925 9.97832 8.36525 9.96082C8.37125 9.94332 8.38525 9.93007 8.396 9.93207ZM8.53175 10.0238C8.59925 10.0281 8.71475 10.1048 8.71475 10.1458C8.71475 10.1601 8.6805 10.1693 8.63875 10.1668C8.59675 10.1643 8.54975 10.1741 8.53475 10.1883C8.5195 10.2026 8.4985 10.2051 8.48825 10.1941C8.47825 10.1833 8.46975 10.1398 8.46975 10.0976C8.46975 10.0353 8.48175 10.0206 8.53175 10.0238ZM8.141 10.0843C8.1558 10.085 8.17036 10.0883 8.184 10.0941C8.2065 10.1041 8.225 10.1251 8.225 10.1406C8.225 10.1766 8.098 10.1686 8.07575 10.1311C8.05975 10.1043 8.09775 10.0831 8.141 10.0843ZM8.80325 10.1278C8.83675 10.1346 8.86425 10.1523 8.86425 10.1673C8.86425 10.1823 8.83675 10.1968 8.80325 10.1996C8.761 10.2028 8.74225 10.1901 8.74225 10.1596C8.74225 10.1288 8.761 10.1191 8.80325 10.1278ZM9.378 16.2513C9.43575 16.2548 9.4355 16.3298 9.3775 16.3378C9.335 16.3433 9.2625 16.5068 9.205 16.7268C9.1285 17.2091 9.16375 17.5108 9.3185 17.7458C9.59475 18.0583 11.0785 18.3643 11.4497 18.9521C10.493 18.6403 7.67725 18.1946 6.68225 18.0966L6.665 17.9681C6.65275 17.8783 6.65775 17.8333 6.6815 17.8196C6.7045 17.8067 6.69558 17.799 6.65475 17.7963C6.621 17.7938 6.59175 17.7826 6.59025 17.7713C6.56375 17.5788 6.5745 17.5428 6.6695 17.5091C6.7215 17.4906 6.80825 17.4831 6.86225 17.4926C6.91625 17.5021 6.974 17.4993 6.99075 17.4866C7.01108 17.4709 7.033 17.4922 7.0565 17.5506C7.09025 17.6341 7.09575 17.6371 7.2165 17.6278C7.421 17.6118 7.52625 17.6238 7.6625 17.6786C7.8505 17.7541 8.14325 17.7631 8.101 17.6923C8.09275 17.6783 8.1175 17.6688 8.156 17.6713C8.195 17.6738 8.2335 17.6921 8.24075 17.7118C8.248 17.7316 8.28075 17.7511 8.314 17.7556C8.3494 17.7617 8.38142 17.7803 8.40425 17.8081C8.45225 17.8766 8.46275 17.8621 8.44475 17.7508C8.433 17.6773 8.41325 17.6443 8.3745 17.6351C8.31625 17.6213 8.2525 17.5503 8.2525 17.4993C8.2525 17.4818 8.28 17.4568 8.3135 17.4431L8.375 17.4181L8.3065 17.3871C8.24775 17.3596 8.245 17.3533 8.286 17.3391C8.32 17.3276 8.329 17.3043 8.31725 17.2571C8.30525 17.2086 8.31425 17.1871 8.3515 17.1756C8.38578 17.1631 8.41693 17.1433 8.44275 17.1176C8.46525 17.0941 8.50875 17.0631 8.5395 17.0486C8.585 17.0273 8.60125 17.0326 8.6285 17.0776C8.661 17.1321 8.66175 17.1318 8.7185 17.0826C8.76825 17.0393 8.77375 17.0133 8.7585 16.8953C8.7425 16.7753 8.7475 16.7553 8.796 16.7323C8.826 16.7178 8.851 16.6908 8.851 16.6718C8.851 16.6526 8.87525 16.6121 8.90525 16.5818C8.93525 16.5518 8.96 16.5201 8.96 16.5118C8.96 16.4873 9.0665 16.3951 9.09325 16.3968C9.107 16.3976 9.1225 16.3888 9.1275 16.3773C9.1425 16.3428 9.33 16.2483 9.378 16.2513ZM5.25875 17.6493L5.5155 17.7508C5.7075 17.8266 5.79775 17.8498 5.87 17.8408C5.92875 17.8333 5.96775 17.8393 5.96775 17.8558C5.96775 17.8708 6.0205 17.8938 6.085 17.9076C6.15525 17.9226 6.223 17.9576 6.255 17.9958L6.316 18.0013C6.321 17.9656 6.3505 17.9383 6.392 17.9306C6.478 17.9143 6.52 17.9423 6.5035 18.0053C6.496 18.0323 6.5045 18.0843 6.5215 18.0921C5.702 17.9971 5.165 17.9381 4.4105 17.9871C4.433 17.9738 4.56 17.9106 4.61875 17.9138C4.68125 17.9176 4.77125 17.8963 4.8375 17.8616C4.899 17.8293 4.995 17.7973 5.05075 17.7903C5.11025 17.7828 5.1745 17.7508 5.20575 17.7133L5.25875 17.6493Z" fill="#FCF4E4"/>
</svg>
