<svg width="674" height="674" viewBox="0 0 674 674" fill="none" xmlns="http://www.w3.org/2000/svg">
<circle cx="337" cy="337" r="337" fill="#FCF4E4"/>
<path d="M359.111 558H314.889V535.9H270.667V513.8H226.444V491.7H182.222V469.6H138V204.4H182.222V182.3H226.444V160.2H270.667V138.1H314.889V116H359.111V138.1H403.333V160.2H447.556V182.3H491.778V204.4H536V469.6H491.778V491.7H447.556V513.8H403.333V535.9H359.111M359.111 314.9V292.8H403.333V270.7H447.556V248.6H491.778V226.5H447.556V204.4H403.333V182.3H359.111V160.2H314.889V182.3H270.667V204.4H226.444V226.5H182.222V248.6H226.444V270.7H270.667V292.8H314.889V314.9M314.889 491.7V337H270.667V314.9H226.444V292.8H182.222V447.5H226.444V469.6H270.667V491.7M403.333 491.7V469.6H447.556V447.5H491.778V292.8H447.556V314.9H403.333V337H359.111V491.7H403.333Z" fill="#9C6C44"/>
</svg>
