<svg width="674" height="674" viewBox="0 0 674 674" fill="none" xmlns="http://www.w3.org/2000/svg">
<circle cx="337" cy="337" r="337" fill="#FCF4E4"/>
<path d="M375.771 365.375V518.05C376.546 523.862 374.609 530.062 370.153 534.131C368.36 535.927 366.231 537.352 363.887 538.325C361.543 539.297 359.031 539.797 356.493 539.797C353.956 539.797 351.443 539.297 349.099 538.325C346.756 537.352 344.626 535.927 342.834 534.131L303.89 495.188C301.778 493.121 300.172 490.594 299.198 487.805C298.223 485.015 297.906 482.038 298.271 479.106V365.375H297.69L186.09 222.387C182.944 218.348 181.524 213.228 182.141 208.146C182.759 203.063 185.362 198.431 189.384 195.263C193.065 192.55 197.134 191 201.396 191H472.646C476.909 191 480.978 192.55 484.659 195.263C488.681 198.431 491.284 203.063 491.902 208.146C492.519 213.228 491.099 218.348 487.953 222.387L376.353 365.375H375.771Z" fill="#9C6C44"/>
</svg>
