<svg width="674" height="674" viewBox="0 0 674 674" fill="none" xmlns="http://www.w3.org/2000/svg">
<circle cx="337" cy="337" r="337" fill="#FCF4E4"/>
<path d="M280.605 144.001C244.352 143.809 209.057 178.722 225.17 222.075H164.364C154.189 222.075 144.431 226.117 137.236 233.312C130.042 240.507 126 250.265 126 260.441V298.806C126 303.894 128.021 308.773 131.618 312.37C135.216 315.968 140.094 317.989 145.182 317.989H317.818V260.441H356.182V317.989H528.818C533.906 317.989 538.784 315.968 542.382 312.37C545.979 308.773 548 303.894 548 298.806V260.441C548 250.265 543.958 240.507 536.764 233.312C529.569 226.117 519.811 222.075 509.636 222.075H448.83C471.273 159.347 386.873 115.035 347.934 169.13L337 183.709L326.066 168.747C313.982 151.674 297.294 144.193 280.605 144.001ZM279.455 183.709C296.526 183.709 305.158 204.427 293.074 216.512C280.989 228.597 260.273 219.965 260.273 202.892C260.273 197.804 262.294 192.925 265.891 189.328C269.488 185.73 274.367 183.709 279.455 183.709ZM394.545 183.709C411.617 183.709 420.249 204.427 408.165 216.512C396.08 228.597 375.364 219.965 375.364 202.892C375.364 197.804 377.385 192.925 380.982 189.328C384.579 185.73 389.458 183.709 394.545 183.709ZM145.182 337.172V490.634C145.182 500.81 149.224 510.568 156.418 517.763C163.613 524.958 173.371 529 183.545 529H490.455C500.629 529 510.387 524.958 517.582 517.763C524.776 510.568 528.818 500.81 528.818 490.634V337.172H356.182V490.634H317.818V337.172H145.182Z" fill="#9C6C44"/>
</svg>
